<svg id="Capa_1" data-name="Capa 1" xmlns="http://www.w3.org/2000/svg" xmlns:xlink="http://www.w3.org/1999/xlink" viewBox="0 0 758.22 349"><defs><style>.cls-1{fill:url(#Degradado_sin_nombre_5);}.cls-2{fill:url(#Degradado_sin_nombre_5-2);}.cls-3,.cls-4{fill:none;stroke-linecap:round;stroke-width:7px;}.cls-3{stroke:#fff;}.cls-4{stroke:#224364;}.cls-5{fill:url(#Degradado_sin_nombre_5-3);}.cls-6{fill:url(#Degradado_sin_nombre_5-4);}.cls-7{fill:url(#Degradado_sin_nombre_5-5);}.cls-8{fill:url(#Degradado_sin_nombre_5-6);}.cls-9{font-size:22.92px;fill:#fff;font-family:LucidaGrande-Bold, Lucida Grande;font-weight:700;}</style><linearGradient id="Degradado_sin_nombre_5" x1="-45.59" y1="1081.06" x2="-45.59" y2="1080.06" gradientTransform="matrix(104, 0, 0, -238, 4810, 257416.97)" gradientUnits="userSpaceOnUse"><stop offset="0" stop-color="#005d68"/><stop offset="1" stop-color="#224364"/></linearGradient><linearGradient id="Degradado_sin_nombre_5-2" x1="-45.41" y1="1081.06" x2="-45.41" y2="1080.06" gradientTransform="translate(-4576 257416.97) rotate(180) scale(105 238)" xlink:href="#Degradado_sin_nombre_5"/><linearGradient id="Degradado_sin_nombre_5-3" x1="-45.68" y1="1081.31" x2="-45.68" y2="1080.31" gradientTransform="matrix(50, 0, 0, -48, 2529, 51903)" xlink:href="#Degradado_sin_nombre_5"/><linearGradient id="Degradado_sin_nombre_5-4" x1="-45.68" y1="1081.31" x2="-45.68" y2="1080.31" gradientTransform="matrix(50, 0, 0, -49, 2601, 53134)" xlink:href="#Degradado_sin_nombre_5"/><linearGradient id="Degradado_sin_nombre_5-5" x1="-45.69" y1="1081.31" x2="-45.69" y2="1080.31" gradientTransform="matrix(48, 0, 0, -48, 2461, 52204)" xlink:href="#Degradado_sin_nombre_5"/><linearGradient id="Degradado_sin_nombre_5-6" x1="-44.14" y1="1080.91" x2="-44.14" y2="1079.91" gradientTransform="matrix(337, 0, 0, -329, 15464, 355636)" xlink:href="#Degradado_sin_nombre_5"/></defs><title>brain-ball</title><g id="brain"><g id="Group-Copy"><path id="Path-12" class="cls-1" d="M121,141.46V340.65Q119,360.84,96.88,362c-18.93.13-24.37-15-23.71-21.35-18.5-.43-26.08-18.31-23.75-27.34-12.86-1.89-28.78-22.05-16.32-45C-4.33,231.81,33,194,49.42,193c-8.22-24.89,5.73-42.4,23.75-45.83C74.27,123.81,109.46,112.05,121,141.46Z" transform="translate(-17 -47)"/><path id="Path-12-Copy" class="cls-2" d="M140,141.46V340.65q2,20.19,24.35,21.35c19.12.13,24.6-15,23.94-21.35,18.68-.43,26.33-18.31,24-27.34,13-1.89,29.06-22.05,16.47-45,37.8-36.47.07-74.28-16.47-75.25,8.3-24.89-5.78-42.4-24-45.83C187.18,123.81,151.65,112.05,140,141.46Z" transform="translate(-17 -47)"/><path id="Line-3" class="cls-3" d="M98,177a54.91,54.91,0,0,1-13.1,14.41A58.58,58.58,0,0,1,67,200" transform="translate(-17 -47)"/><path id="Line-3-Copy-4" class="cls-3" d="M165,177a54.91,54.91,0,0,0,13.1,14.41A58.58,58.58,0,0,0,196,200" transform="translate(-17 -47)"/><path id="Line-3-Copy-2" class="cls-3" d="M90,284a53.21,53.21,0,0,0-13.1-13.78A59.82,59.82,0,0,0,59,262" transform="translate(-17 -47)"/><path id="Line-3-Copy-5" class="cls-3" d="M158,284a53.21,53.21,0,0,1,13.1-13.78A59.82,59.82,0,0,1,189,262" transform="translate(-17 -47)"/><path id="Line-3-Copy" class="cls-3" d="M95,215a44.94,44.94,0,0,0-2.91,12.68A48.92,48.92,0,0,0,93.19,241" transform="translate(-17 -47)"/><path id="Line-3-Copy-6" class="cls-3" d="M194,215a36.15,36.15,0,0,0-3.88,12.68A37.33,37.33,0,0,0,191.58,241" transform="translate(-17 -47)"/><path id="Line-3-Copy-3" class="cls-3" d="M93,305a35.65,35.65,0,0,0-8.91,9A39.53,39.53,0,0,0,79,326" transform="translate(-17 -47)"/><path id="Line-3-Copy-7" class="cls-3" d="M192,305a37.13,37.13,0,0,0-9.54,9A38,38,0,0,0,177,326" transform="translate(-17 -47)"/><path id="Line-3-Copy-8" class="cls-3" d="M226,228l-19,5" transform="translate(-17 -47)"/><path id="Line-3-Copy-9" class="cls-3" d="M204,273l1,22" transform="translate(-17 -47)"/><polyline id="Line-5" class="cls-4" points="209 120 245 120 245 48"/><polyline id="Line-5-Copy" class="cls-4" points="233 215 269 215 269 301"/><path id="Line-6" class="cls-4" d="M262.13,221.5h46.8" transform="translate(-17 -47)"/><ellipse id="Oval" class="cls-5" cx="245" cy="24" rx="25" ry="24"/><ellipse id="Oval-Copy-5" class="cls-6" cx="317" cy="174.5" rx="25" ry="24.5"/><circle id="Oval-Copy-248" class="cls-7" cx="268" cy="325" r="24"/></g></g><g id="brian-cell"><ellipse id="Oval-Copy-6" class="cls-8" cx="589.72" cy="182.33" rx="168.5" ry="164.5"/></g><text class="cls-9" transform="translate(480.87 159.92)">Cuando la data se <tspan x="-8.21" y="27.5">transforma en valor</tspan><tspan x="20.71" y="55" xml:space="preserve"> para tu marca.</tspan></text></svg>