<svg id="Capa_1" data-name="Capa 1" xmlns="http://www.w3.org/2000/svg" xmlns:xlink="http://www.w3.org/1999/xlink" viewBox="0 0 287 288"><defs><style>.cls-1{fill:#b9382f;}.cls-2{fill:url(#Degradado_sin_nombre_2);}.cls-3{fill:#ffe465;}.cls-4{fill:#5cd89f;}.cls-5{fill:#e59ca8;}.cls-6{fill:#5b507a;}.cls-7{fill:#ffa400;}.cls-8{fill:#005d68;}.cls-9{fill:#224364;}.cls-10{fill:#3e78b2;}.cls-11{fill:#3ea1b2;}.cls-12{fill:#4d4d4d;}</style><linearGradient id="Degradado_sin_nombre_2" x1="-495.4" y1="944.25" x2="-495.4" y2="943.25" gradientTransform="matrix(72.73, -37.88, -10.16, -19.51, 45841.93, -147.18)" gradientUnits="userSpaceOnUse"><stop offset="0" stop-color="#a63b3b"/><stop offset="1" stop-color="#731f1f"/></linearGradient></defs><title>confeti</title><g id="hat"><g id="Group-6-Copy"><polygon id="Triangle" class="cls-1" points="262.06 275.61 257.99 186.45 188.81 222.48 259.56 276.96 262.06 275.61"/><path id="Oval" class="cls-2" d="M227.31,211.45c20-10.4,34.26-22.45,31.46-27.84s-21.65-2.07-41.62,8.32S183.23,216.1,186,221.49,207.35,221.85,227.31,211.45Z"/><path id="Path-13" class="cls-3" d="M213.27,241.31a240.69,240.69,0,0,0,24.84-11.12,165.12,165.12,0,0,0,21.25-13.12l.91,18.62a86.55,86.55,0,0,1-13.76,8.6,169,169,0,0,1-18.66,8.25Z"/></g></g><path id="Rectangle-Copy-2" class="cls-4" d="M198.06,203.37l3.4-5.56A22.74,22.74,0,0,0,206,201.9a33.71,33.71,0,0,0,10,4.79l-2.49,4.06a7.93,7.93,0,0,1-4.17-1.38Q206.63,207.84,198.06,203.37Z"/><path id="Rectangle-Copy-3" class="cls-3" d="M219.91,212l5.78-3a22.79,22.79,0,0,1-3.76-4.78,33.94,33.94,0,0,1-4.09-10.3l-4.22,2.2a8,8,0,0,0,1.09,4.26Q216,203.19,219.91,212Z"/><path id="Path-14-Copy-2" class="cls-5" d="M232.34,184.18l2-5.21q9.78,6.85,11.78,9.77t.06,8.56a16.91,16.91,0,0,0-5.1-7.26A36.18,36.18,0,0,0,232.34,184.18Z"/><path id="Path-14-Copy-3" class="cls-6" d="M204.77,212.71l1.34,5.42q-12,0-15.25-1.24t-5-7a17,17,0,0,0,8.35,3A36.09,36.09,0,0,0,204.77,212.71Z"/><path id="Path-15-Copy-7" class="cls-7" d="M207.81,186.33a27.85,27.85,0,0,0,.8,6.92c1.11,3.31,3.75,5.13,4.34,7.95.94,4.44.65,7-.89,7.67l4.31,1.17c1.82-1.17,2.44-3.86,1.88-8.09-.34-2.54-3-5.13-4.25-8.39a39.69,39.69,0,0,1-1.65-6.38Z"/><path id="Path-15-Copy-8" class="cls-8" d="M186.21,205.66a27.92,27.92,0,0,0,6.69,2c3.48.27,6.18-1.44,9-.89q6.68,1.31,6.71,3.82l2.76-3.51q-.54-3.19-6.71-4.89c-2.47-.68-5.88.73-9.38.63a39.1,39.1,0,0,1-6.52-1Z"/><path id="Path-15-Copy-9" class="cls-9" d="M224.7,208.43A28.2,28.2,0,0,1,222,202c-.63-3.43.79-6.3-.06-9q-2-6.51-4.49-6.28l3.2-3.11c2.15.14,4,2.19,5.56,6.17.93,2.38-.11,5.92.36,9.39a38.82,38.82,0,0,0,1.65,6.38Z"/><path id="Path-15-Copy-10" class="cls-10" d="M233.36,204.46a13,13,0,0,0,2.77-3.9c.71-2.26-.62-4.63.28-6.36,1.41-2.73,2.94-3.85,4.57-3.33l-3.07-3q-3.18-.65-5.62,3c-1,1.45,0,4.2-.58,6.53a17.5,17.5,0,0,1-1.78,4.1Z"/><path id="Path-15-Copy-11" class="cls-11" d="M238.4,195.12a27.72,27.72,0,0,0-6.13-3.31c-3.35-1-6.35.12-9-1q-6.27-2.66-5.78-5.12l-3.43,2.85c-.09,2.16,1.77,4.22,5.55,6.18,2.28,1.18,5.91.51,9.31,1.34a37.44,37.44,0,0,1,6.17,2.3Z"/><path id="Path-15-Copy-12" class="cls-7" d="M218,201.74a13,13,0,0,0-3.59-3.16c-2.18-.94-4.67.14-6.3-.94-2.57-1.69-3.51-3.33-2.83-4.9L202,195.49q-1,3.09,2.39,5.9c1.34,1.13,4.18.48,6.44,1.26a17.37,17.37,0,0,1,3.88,2.2Z"/><path id="Path-15-Copy-13" class="cls-11" d="M227.64,194.3a12.81,12.81,0,0,0,1.67-4.48c.09-2.37-1.8-4.31-1.38-6.21q1-4.52,3.56-4.41l-3.74-2.07c-2.15.14-3.71,1.59-4.65,4.35-.57,1.65,1.05,4.06,1.12,6.46a16.9,16.9,0,0,1-.65,4.41Z"/><path id="Path-16-Copy-3" class="cls-3" d="M237.32,169l4.45-1.15a11.36,11.36,0,0,1-.11,5c-1.34,3.94-4,8-4,10.87s1.27,7.23,4,12.82l-3.72,1.93q-4.86-8-4.9-13.55c0-5.54,3.48-8.08,4.2-10.92A10,10,0,0,0,237.32,169Z"/><path id="Path-16-Copy-4" class="cls-12" d="M216.56,184.68l-4.45,1.16a5.86,5.86,0,0,0,2.13,2.75c2.78,1.66,6.76,2.83,8,4.44s1.79,4.54,1.58,8.76l4.12-.42q1.11-6.44-1.08-9.54c-2.19-3.1-6.38-3.1-8.16-4.4A5.05,5.05,0,0,1,216.56,184.68Z"/><path id="Path-16-Copy-5" class="cls-6" d="M220.11,170.34l4.45-1.16a11.35,11.35,0,0,1-.11,5c-1.34,3.94-4,8-4,10.88s1.27,7.22,4,12.81l-3.72,1.93q-4.86-8-4.9-13.55c0-5.53,3.48-8.07,4.2-10.91A10,10,0,0,0,220.11,170.34Z"/></svg>