<?xml version="1.0" encoding="UTF-8"?>
<svg width="265px" height="203px" viewBox="0 0 265 203" version="1.1" xmlns="http://www.w3.org/2000/svg" xmlns:xlink="http://www.w3.org/1999/xlink">
    <!-- Generator: Sketch 53.2 (72643) - https://sketchapp.com -->
    <title>confetti</title>
    <desc>Created with Sketch.</desc>
    <g id="confetti" stroke="none" stroke-width="1" fill="none" fill-rule="evenodd">
        <path d="M114.828532,112.807749 L121.34938,112.807749 C120.894345,113.820176 120.517095,115.813127 120.21763,118.7866 C119.918165,121.760073 120.295415,125.433826 121.34938,129.807858 L116.590518,129.807744 C115.989527,128.999643 115.65651,127.571224 115.59147,125.522488 C115.526429,123.473752 115.272116,119.235505 114.828532,112.807749 Z" id="Rectangle-Copy-2" fill="#5CD89F" transform="translate(118.088956, 121.307803) rotate(-44.000000) translate(-118.088956, -121.307803) "></path>
        <path d="M24.8285318,102.807749 L31.3493803,102.807749 C30.8943451,103.820176 30.517095,105.813127 30.2176302,108.7866 C29.9181653,111.760073 30.2954153,115.433826 31.3493803,119.807858 L26.590518,119.807744 C25.9895265,118.999643 25.6565104,117.571224 25.5914696,115.522488 C25.5264287,113.473752 25.2721161,109.235505 24.8285318,102.807749 Z" id="Rectangle-Copy-3" fill="#FFE465" transform="translate(28.088956, 111.307803) scale(1, -1) rotate(13.000000) translate(-28.088956, -111.307803) "></path>
        <path d="M56.838969,108.464322 L60.0933793,103.928495 C65.2668964,109.9897 68.2526071,114.125085 69.0505115,116.334649 C69.848416,118.544213 69.1535492,121.312745 66.9659113,124.640245 C66.8365321,122.066772 65.7970769,119.29824 63.8475456,116.334649 C61.8980144,113.371058 59.5618222,110.747616 56.838969,108.464322 Z" id="Path-14-Copy-2" fill="#E59CA8"></path>
        <path d="M74.6457151,163.185344 L77.9001255,158.649517 C83.0736425,164.710722 86.0593532,168.846107 86.8572577,171.055671 C87.6551621,173.265235 86.9602954,176.033767 84.7726574,179.361267 C84.6432782,176.787794 83.603823,174.019262 81.6542917,171.055671 C79.7047605,168.09208 77.3685683,165.468638 74.6457151,163.185344 Z" id="Path-14-Copy-3" fill="#5B507A" transform="translate(80.911420, 169.005392) scale(-1, -1) rotate(-35.000000) translate(-80.911420, -169.005392) "></path>
        <path d="M113.546878,61.4005828 C112.816018,64.6640393 112.497988,66.9653595 112.59279,68.3045435 C112.839162,71.7848309 114.932408,74.2053325 114.803548,77.0812422 C114.600311,81.6170892 113.673382,84.0185634 112.022761,84.2856648 L115.898758,86.4964224 C117.946964,85.8251784 119.227771,83.3711032 119.741179,79.1341967 C120.048911,76.5946368 118.150941,73.4270396 117.735172,69.9519351 C117.549915,68.4035154 117.549915,66.2068924 117.735172,63.3620661 L113.546878,61.4005828 Z" id="Path-15-Copy-7" fill="#FFA400"></path>
        <path d="M107.916823,145.891805 C107.185963,149.155261 106.867934,151.456582 106.962736,152.795766 C107.209108,156.276053 109.302353,158.696555 109.173493,161.572464 C108.970257,166.108311 108.043327,168.509785 106.392706,168.776887 L110.268703,170.987645 C112.316909,170.3164 113.597716,167.862325 114.111124,163.625419 C114.418856,161.085859 112.520886,157.918262 112.105117,154.443157 C111.919861,152.894738 111.919861,150.698115 112.105117,147.853288 L107.916823,145.891805 Z" id="Path-15-Copy-8" fill="#005D68" transform="translate(110.268703, 158.439725) rotate(-67.000000) translate(-110.268703, -158.439725) "></path>
        <path d="M179.363086,57.9284947 C178.632226,61.1919511 178.314197,63.4932714 178.408999,64.8324554 C178.655371,68.3127427 180.748616,70.7332443 180.619756,73.609154 C180.416519,78.145001 179.48959,80.5464753 177.838969,80.8135767 L181.714966,83.0243343 C183.763172,82.3530903 185.043979,79.899015 185.557387,75.6621086 C185.865119,73.1225487 183.967149,69.9549514 183.55138,66.4798469 C183.366124,64.9314273 183.366124,62.7348043 183.55138,59.8899779 L179.363086,57.9284947 Z" id="Path-15-Copy-9" fill="#224364" transform="translate(181.714966, 70.476414) scale(1, -1) translate(-181.714966, -70.476414) "></path>
        <path d="M136.639632,22.6607373 C135.88539,24.8714129 135.557186,26.4303344 135.655021,27.3375018 C135.909275,29.6950593 138.069489,31.3347146 137.936506,33.2828649 C137.726767,36.3554618 136.770183,37.9822279 135.066754,38.1631632 L139.066754,39.6607373 C141.180487,39.2060345 142.50227,37.5436363 143.032104,34.6735427 C143.349681,32.9532369 141.39099,30.8074966 140.961919,28.45345 C140.770736,27.4045457 140.770736,25.9165464 140.961919,23.9894522 L136.639632,22.6607373 Z" id="Path-15-Copy-10" fill="#3E78B2" transform="translate(139.066754, 31.160737) scale(-1, -1) rotate(38.000000) translate(-139.066754, -31.160737) "></path>
        <path d="M34.9889238,141.752797 C34.2580635,145.016254 33.9400342,147.317574 34.0348361,148.656758 C34.2812081,152.137045 36.3744539,154.557547 36.2455937,157.433457 C36.042357,161.969304 35.1154279,164.370778 33.4648065,164.637879 L37.340804,166.848637 C39.3890097,166.177393 40.6698167,163.723318 41.1832249,159.486411 C41.4909568,156.946851 39.5929867,153.779254 39.1772176,150.304149 C38.9919613,148.75573 38.9919613,146.559107 39.1772176,143.714281 L34.9889238,141.752797 Z" id="Path-15-Copy-11" fill="#3EA1B2" transform="translate(37.340804, 154.300717) scale(-1, -1) rotate(-55.000000) translate(-37.340804, -154.300717) "></path>
        <path d="M203.304868,31.21045 C202.550626,33.4211256 202.222422,34.9800471 202.320257,35.8872145 C202.574511,38.244772 204.734725,39.8844273 204.601742,41.8325776 C204.392003,44.9051745 203.43542,46.5319406 201.731991,46.7128759 L205.731991,48.21045 C207.845724,47.7557472 209.167507,46.093349 209.69734,43.2232554 C210.014917,41.5029496 208.056226,39.3572093 207.627156,37.0031627 C207.435973,35.9542584 207.435973,34.4662591 207.627156,32.5391649 L203.304868,31.21045 Z" id="Path-15-Copy-12" fill="#FFA400" transform="translate(205.731991, 39.710450) scale(-1, -1) rotate(-46.000000) translate(-205.731991, -39.710450) "></path>
        <path d="M205.415081,129.81571 C204.660838,132.026386 204.332634,133.585308 204.430469,134.492475 C204.684723,136.850032 206.844937,138.489688 206.711954,140.437838 C206.502216,143.510435 205.545632,145.137201 203.842203,145.318136 L207.842203,146.81571 C209.955936,146.361008 211.277719,144.698609 211.807552,141.828516 C212.125129,140.10821 210.166438,137.96247 209.737368,135.608423 C209.546185,134.559519 209.546185,133.07152 209.737368,131.144425 L205.415081,129.81571 Z" id="Path-15-Copy-13" fill="#3EA1B2" transform="translate(207.842203, 138.315710) scale(-1, -1) rotate(23.000000) translate(-207.842203, -138.315710) "></path>
        <path d="M237.467733,60.9284947 L242.065796,60.9284947 C241.82375,63.1266907 241.368184,64.7358107 240.6991,65.7558546 C238.415887,69.2366949 234.860095,72.4608264 234.05748,75.2737809 C233.246766,78.1151223 233.468948,82.5839801 234.724027,88.6803544 L230.635922,89.6190671 C228.838969,83.6341277 228.389731,78.8523657 229.288207,75.2737809 C230.635922,69.9059037 234.686934,68.3302037 236.089768,65.7558546 C237.024991,64.0396219 237.484313,62.4305019 237.467733,60.9284947 Z" id="Path-16-Copy-3" fill="#FFE465"></path>
        <path d="M78.4677334,57.9284947 L83.0657957,57.9284947 C82.8237496,59.3842246 82.3681843,60.4498457 81.6990996,61.125358 C79.4158872,63.4305043 75.8600949,65.5656481 75.0574804,67.4284947 C74.2467663,69.3101402 74.4689484,72.2695896 75.7240268,76.306843 L71.6359218,76.9284947 C69.838969,72.9650378 69.3897308,69.7983711 70.2882072,67.4284947 C71.6359218,63.87368 75.6869337,62.8301909 77.0897682,61.125358 C78.0249912,59.9888027 78.4843129,58.9231816 78.4677334,57.9284947 Z" id="Path-16-Copy-4" fill="#4D4D4D" transform="translate(76.452382, 67.428495) scale(-1, 1) translate(-76.452382, -67.428495) "></path>
        <path d="M165.467733,110.928495 L170.065796,110.928495 C169.82375,113.126691 169.368184,114.735811 168.6991,115.755855 C166.415887,119.236695 162.860095,122.460826 162.05748,125.273781 C161.246766,128.115122 161.468948,132.58398 162.724027,138.680354 L158.635922,139.619067 C156.838969,133.634128 156.389731,128.852366 157.288207,125.273781 C158.635922,119.905904 162.686934,118.330204 164.089768,115.755855 C165.024991,114.039622 165.484313,112.430502 165.467733,110.928495 Z" id="Path-16-Copy-5" fill="#5B507A"></path>
    </g>
</svg>