<?xml version="1.0" encoding="UTF-8"?>
<svg width="40px" height="40px" viewBox="0 0 40 40" version="1.1" xmlns="http://www.w3.org/2000/svg" xmlns:xlink="http://www.w3.org/1999/xlink">
    <!-- Generator: Sketch 53.2 (72643) - https://sketchapp.com -->
    <title>fb-icon</title>
    <desc>Created with Sketch.</desc>
    <g id="Web" stroke="none" stroke-width="1" fill="none" fill-rule="evenodd">
        <g id="30contact-copy-3" transform="translate(-341.000000, -559.000000)" fill="#224364">
            <g id="fb-icon" transform="translate(341.000000, 559.000000)">
                <path d="M38.1818182,36.3636364 C38.1818182,37.3654545 37.3654545,38.1818182 36.3636364,38.1818182 L25.4545455,38.1818182 L25.4545455,25.4545455 L30.9090909,25.4545455 C31.3545455,25.4545455 31.7327273,25.1327273 31.8054545,24.6945455 L32.7145455,19.24 C32.76,18.9763636 32.6854545,18.7072727 32.5109091,18.5036364 C32.34,18.2981818 32.0854545,18.1818182 31.8181818,18.1818182 L25.4545455,18.1818182 L25.4545455,15.4545455 C25.4545455,14.9527273 25.8618182,14.5454545 26.3636364,14.5454545 L31.8181818,14.5454545 C32.32,14.5454545 32.7272727,14.1381818 32.7272727,13.6363636 L32.7272727,8.18181818 C32.7272727,7.68 32.32,7.27272727 31.8181818,7.27272727 L26.3636364,7.27272727 C21.8527273,7.27272727 18.1818182,10.9436364 18.1818182,15.4545455 L18.1818182,18.1818182 L15.4927273,18.1818182 C14.9909091,18.1818182 14.5836364,18.5890909 14.5836364,19.0909091 L14.5836364,24.5454545 C14.5836364,25.0472727 14.9909091,25.4545455 15.4927273,25.4545455 L18.1818182,25.4545455 L18.1818182,38.1818182 L3.63636364,38.1818182 C2.63454545,38.1818182 1.81818182,37.3654545 1.81818182,36.3636364 L1.81818182,3.63636364 C1.81818182,2.63454545 2.63454545,1.81818182 3.63636364,1.81818182 L36.3636364,1.81818182 C37.3654545,1.81818182 38.1818182,2.63454545 38.1818182,3.63636364 L38.1818182,36.3636364 Z M36.3636364,0 L3.63636364,0 C1.63090909,0 0,1.63090909 0,3.63636364 L0,36.3636364 C0,38.3690909 1.63090909,40 3.63636364,40 L19.0909091,40 C19.5927273,40 20,39.5927273 20,39.0909091 L20,24.5454545 C20,24.0436364 19.5927273,23.6363636 19.0909091,23.6363636 L16.4018182,23.6363636 L16.4018182,20 L19.0909091,20 C19.5927273,20 20,19.5927273 20,19.0909091 L20,15.4545455 C20,11.9454545 22.8545455,9.09090909 26.3636364,9.09090909 L30.9090909,9.09090909 L30.9090909,12.7272727 L26.3636364,12.7272727 C24.86,12.7272727 23.6363636,13.9509091 23.6363636,15.4545455 L23.6363636,19.0909091 C23.6363636,19.5927273 24.0436364,20 24.5454545,20 L30.7454545,20 L30.14,23.6363636 L24.5454545,23.6363636 C24.0436364,23.6363636 23.6363636,24.0436364 23.6363636,24.5454545 L23.6363636,39.0909091 C23.6363636,39.5927273 24.0436364,40 24.5454545,40 L36.3636364,40 C38.3690909,40 40,38.3690909 40,36.3636364 L40,3.63636364 C40,1.63090909 38.3690909,0 36.3636364,0 L36.3636364,0 Z" id="Fill-67"></path>
            </g>
        </g>
    </g>
</svg>