<?xml version="1.0" encoding="UTF-8"?>
<svg width="194px" height="194px" viewBox="0 0 194 194" version="1.1" xmlns="http://www.w3.org/2000/svg" xmlns:xlink="http://www.w3.org/1999/xlink">
    <!-- Generator: Sketch 53.2 (72643) - https://sketchapp.com -->
    <title>heart</title>
    <desc>Created with Sketch.</desc>
    <defs>
        <linearGradient x1="50%" y1="0%" x2="50%" y2="99.8653927%" id="linearGradient-1">
            <stop stop-color="#5B507A" offset="0%"></stop>
            <stop stop-color="#3A3646" offset="100%"></stop>
        </linearGradient>
    </defs>
    <g id="heart" stroke="none" stroke-width="1" fill="none" fill-rule="evenodd">
        <g id="heart-copy" transform="translate(25.000000, 36.000000)" fill="url(#linearGradient-1)" fill-rule="nonzero">
            <path d="M135.603142,14.3073882 C114.174669,-13.4112741 72.0028441,2.94445833 72.0028441,31.0935346 C72.0028441,2.94445833 29.8283195,-13.4126191 8.39680848,14.3073882 C-13.7532375,42.9642185 8.07854712,93.1636063 72.0014941,122 C135.921404,93.1636063 157.753188,42.9642185 135.603142,14.3073882 Z" id="Path"></path>
        </g>
        <g id="cardiogram-copy" transform="translate(25.000000, 65.000000)" fill="#FFFFFF" fill-rule="nonzero">
            <path d="M136.347499,41.5754375 L130.576652,41.5754375 L102.199202,41.5754375 C101.036412,41.5754375 100.009231,42.3382912 99.6650693,43.4566981 L97.1398884,51.6734836 L91.5076343,11.24324 C91.3302483,9.9715946 90.2795264,9.00675997 89.0056628,8.94633261 C87.7337886,8.89091304 86.5955342,9.74657781 86.3004434,10.995855 L78.7537468,42.9228674 L74.3336856,23.6151576 C74.0611411,22.4243046 73.0206976,21.5716445 71.80751,21.5449363 C70.589349,21.5135541 69.517407,22.3234811 69.1928072,23.5009799 L61.2555298,52.3094732 L57.0168334,2.44354748 C56.9107333,1.19260098 55.9531805,0.185033186 54.7164519,0.0227807175 C53.4790603,-0.140473309 52.2983658,0.587325828 51.8772813,1.76916479 L37.5879273,41.8695618 L13.7787476,41.8695618 L2.65250091,41.8695618 C1.18765728,41.8695618 0,43.0654226 0,44.5403843 C0,46.0153461 1.18765728,47.2112068 2.65250091,47.2112068 L17.5986804,47.2112068 L39.4542933,47.2112068 C40.5736486,47.2112068 41.5729784,46.5034389 41.9509597,45.4424546 L52.7671953,15.0885567 L57.2273756,67.5565312 C57.3367913,68.8445354 58.3463994,69.868462 59.6245733,69.9883152 C59.707464,69.9959938 59.7896915,70 59.871919,70 C61.0522819,70 62.1046617,69.2077673 62.4259458,68.0429548 L71.5114246,35.0679784 L76.1277709,55.2330223 C76.4046257,56.4419033 77.4712626,57.2995712 78.7033493,57.3039113 C78.7066649,57.3039113 78.7096489,57.3039113 78.712633,57.3039113 C79.9404094,57.3039113 81.0087041,56.4549236 81.2928533,55.2513842 L88.2065969,26.0018714 L93.5358028,64.2577316 C93.7085469,65.4963255 94.7115238,66.4484738 95.9495786,66.5489635 C97.1846494,66.6507886 98.3292035,65.8715761 98.6965749,64.676383 L104.154759,46.9170825 L126.78656,46.9170825 L136.347499,46.9170825 C137.812343,46.9170825 139,45.7212217 139,44.24626 C139,42.7712983 137.812343,41.5754375 136.347499,41.5754375 Z" id="Path"></path>
        </g>
    </g>
</svg>