<?xml version="1.0" encoding="UTF-8"?>
<svg width="259px" height="496px" viewBox="0 0 259 496" version="1.1" xmlns="http://www.w3.org/2000/svg" xmlns:xlink="http://www.w3.org/1999/xlink">
    <!-- Generator: Sketch 53.2 (72643) - https://sketchapp.com -->
    <title>iphone-mockup</title>
    <desc>Created with Sketch.</desc>
    <defs>
        <rect id="path-1" x="0" y="0" width="238" height="480"></rect>
        <path d="M45.7296245,-1.80595995e-15 L192.270375,1.80595995e-15 C208.171562,-1.04931474e-15 213.937717,1.61838977 219.750953,4.65738743 C225.564189,7.6963851 230.126451,12.1559907 233.235404,17.8384222 C236.344356,23.5208538 238,29.1572631 238,44.7006546 L238,435.299345 C238,450.842737 236.344356,456.479146 233.235404,462.161578 C230.126451,467.844009 225.564189,472.303615 219.750953,475.342613 C213.937717,478.38161 208.171562,480 192.270375,480 L45.7296245,480 C29.8284378,480 24.0622833,478.38161 18.2490471,475.342613 C12.4358109,472.303615 7.87354916,467.844009 4.76459642,462.161578 C1.65564369,456.479146 7.1564603e-16,450.842737 -1.23168771e-15,435.299345 L1.23168771e-15,44.7006546 C-7.1564603e-16,29.1572631 1.65564369,23.5208538 4.76459642,17.8384222 C7.87354916,12.1559907 12.4358109,7.6963851 18.2490471,4.65738743 C24.0622833,1.61838977 29.8284378,1.04931474e-15 45.7296245,-1.80595995e-15 Z" id="path-3"></path>
        <filter x="-4.2%" y="-2.1%" width="108.4%" height="104.2%" filterUnits="objectBoundingBox" id="filter-4">
            <feMorphology radius="4" operator="erode" in="SourceAlpha" result="shadowSpreadInner1"></feMorphology>
            <feGaussianBlur stdDeviation="6" in="shadowSpreadInner1" result="shadowBlurInner1"></feGaussianBlur>
            <feOffset dx="0" dy="-4" in="shadowBlurInner1" result="shadowOffsetInner1"></feOffset>
            <feComposite in="shadowOffsetInner1" in2="SourceAlpha" operator="arithmetic" k2="-1" k3="1" result="shadowInnerInner1"></feComposite>
            <feColorMatrix values="0 0 0 0 0   0 0 0 0 0   0 0 0 0 0  0 0 0 0.5 0" type="matrix" in="shadowInnerInner1"></feColorMatrix>
        </filter>
        <rect id="path-5" x="0" y="0" width="209.016393" height="363.405221"></rect>
    </defs>
    <g id="iphone-mockup" stroke="none" stroke-width="1" fill="none" fill-rule="evenodd">
        <g id="Frame/iPhone-8" transform="translate(10.000000, 8.000000)">
            <mask id="mask-2" fill="white">
                <use xlink:href="#path-1"></use>
            </mask>
            <g id="Background"></g>
            <path d="M119,482.180273 C179.796592,482.180273 229.081967,482.294219 229.081967,480.000931 C229.081967,477.707643 179.796592,477.821589 119,477.821589 C58.2034083,477.821589 8.91803279,477.707643 8.91803279,480.000931 C8.91803279,482.294219 58.2034083,482.180273 119,482.180273 Z" id="Shadow" fill="#000000" fill-rule="evenodd" opacity="0" mask="url(#mask-2)"></path>
            <path d="M-0.557377049,61.0215664 L0,61.0215664 L0,79.5459705 L-0.557377049,79.5459705 C-1.17303874,79.5459705 -1.67213115,79.0581082 -1.67213115,78.4562997 L-1.67213115,62.1112372 C-1.67213115,61.5094286 -1.17303874,61.0215664 -0.557377049,61.0215664 Z M-0.557377049,102.973893 L0,102.973893 L0,137.84336 L-0.557377049,137.84336 C-1.17303874,137.84336 -1.67213115,137.355498 -1.67213115,136.753689 L-1.67213115,104.063564 C-1.67213115,103.461756 -1.17303874,102.973893 -0.557377049,102.973893 Z M-0.557377049,145.471056 L0,145.471056 L0,180.340522 L-0.557377049,180.340522 C-1.17303874,180.340522 -1.67213115,179.85266 -1.67213115,179.250851 L-1.67213115,146.560726 C-1.67213115,145.958918 -1.17303874,145.471056 -0.557377049,145.471056 Z M238,101.339387 L238.557377,101.339387 C239.173039,101.339387 239.672131,101.827249 239.672131,102.429058 L239.672131,135.119183 C239.672131,135.720991 239.173039,136.208854 238.557377,136.208854 L238,136.208854 L238,101.339387 Z" id="Side-buttons" fill="#FFFFFF" fill-rule="evenodd" opacity="0" mask="url(#mask-2)"></path>
            <path d="M45.7296245,-1.80595995e-15 L192.270375,1.80595995e-15 C208.171562,-1.04931474e-15 213.937717,1.61838977 219.750953,4.65738743 C225.564189,7.6963851 230.126451,12.1559907 233.235404,17.8384222 C236.344356,23.5208538 238,29.1572631 238,44.7006546 L238,435.299345 C238,450.842737 236.344356,456.479146 233.235404,462.161578 C230.126451,467.844009 225.564189,472.303615 219.750953,475.342613 C213.937717,478.38161 208.171562,480 192.270375,480 L45.7296245,480 C29.8284378,480 24.0622833,478.38161 18.2490471,475.342613 C12.4358109,472.303615 7.87354916,467.844009 4.76459642,462.161578 C1.65564369,456.479146 7.1564603e-16,450.842737 -1.23168771e-15,435.299345 L1.23168771e-15,44.7006546 C-7.1564603e-16,29.1572631 1.65564369,23.5208538 4.76459642,17.8384222 C7.87354916,12.1559907 12.4358109,7.6963851 18.2490471,4.65738743 C24.0622833,1.61838977 29.8284378,1.04931474e-15 45.7296245,-1.80595995e-15 Z" id="📱-Device" fill="#000000" fill-rule="evenodd" mask="url(#mask-2)"></path>
            <path d="M118.721311,467.468785 C108.255063,467.468785 99.7704918,459.175127 99.7704918,448.944381 C99.7704918,438.713636 108.255063,430.419977 118.721311,430.419977 C129.18756,430.419977 137.672131,438.713636 137.672131,448.944381 C137.672131,459.175127 129.18756,467.468785 118.721311,467.468785 Z M118.721311,465.289444 C127.956237,465.289444 135.442623,457.97151 135.442623,448.944381 C135.442623,439.917253 127.956237,432.599319 118.721311,432.599319 C109.486386,432.599319 102,439.917253 102,448.944381 C102,457.97151 109.486386,465.289444 118.721311,465.289444 Z" id="Button" fill="#191A1C" fill-rule="evenodd" mask="url(#mask-2)"></path>
            <path d="M101.442623,28.3314415 L136.557377,28.3314415 C137.48087,28.3314415 138.229508,29.0632349 138.229508,29.9659478 C138.229508,30.8686607 137.48087,31.600454 136.557377,31.600454 L101.442623,31.600454 C100.51913,31.600454 99.7704918,30.8686607 99.7704918,29.9659478 C99.7704918,29.0632349 100.51913,28.3314415 101.442623,28.3314415 Z M119,17.4347333 C117.614761,17.4347333 116.491803,16.3370432 116.491803,14.9829739 C116.491803,13.6289046 117.614761,12.5312145 119,12.5312145 C120.385239,12.5312145 121.508197,13.6289046 121.508197,14.9829739 C121.508197,16.3370432 120.385239,17.4347333 119,17.4347333 Z" id="Combined-Shape" fill="#191A1C" fill-rule="evenodd" mask="url(#mask-2)"></path>
            <g id="Shading" opacity="0" style="mix-blend-mode: multiply;" mask="url(#mask-2)" fill="black" fill-opacity="1">
                <use filter="url(#filter-4)" xlink:href="#path-3"></use>
            </g>
            <g id="Screen" stroke-width="1" fill-rule="evenodd" mask="url(#mask-2)">
                <g transform="translate(14.491803, 58.297389)">
                    <mask id="mask-6" fill="white">
                        <use xlink:href="#path-5"></use>
                    </mask>
                    <g id="Mask" stroke="none" fill="none"></g>
                </g>
            </g>
        </g>
    </g>
</svg>