<?xml version="1.0" encoding="UTF-8"?>
<svg width="242px" height="480px" viewBox="0 0 242 480" version="1.1" xmlns="http://www.w3.org/2000/svg" xmlns:xlink="http://www.w3.org/1999/xlink">
    <!-- Generator: Sketch 54.1 (76490) - https://sketchapp.com -->
    <title>Frame/iPhone X 0 Copy</title>
    <desc>Created with Sketch.</desc>
    <defs>
        <path d="M47.7296245,-3.02653371e-14 L194.270375,-2.65780817e-14 C210.171562,-2.94929102e-14 215.937717,1.65214529 221.750953,4.75452877 C227.564189,7.85691225 232.126451,12.4095339 235.235404,18.2104867 C238.344356,24.0114394 240,29.76541 240,45.6329973 L240,434.367003 C240,450.23459 238.344356,455.988561 235.235404,461.789513 C232.126451,467.590466 227.564189,472.143088 221.750953,475.245471 C215.937717,478.347855 210.171562,480 194.270375,480 L47.7296245,480 C31.8284378,480 26.0622833,478.347855 20.2490471,475.245471 C14.4358109,472.143088 9.87354916,467.590466 6.76459642,461.789513 C3.65564369,455.988561 2,450.23459 2,434.367003 L2,45.6329973 C2,29.76541 3.65564369,24.0114394 6.76459642,18.2104867 C9.87354916,12.4095339 14.4358109,7.85691225 20.2490471,4.75452877 C26.0622833,1.65214529 31.8284378,-2.73505086e-14 47.7296245,-3.02653371e-14 Z" id="path-1"></path>
        <filter x="-4.2%" y="-2.1%" width="108.4%" height="104.2%" filterUnits="objectBoundingBox" id="filter-2">
            <feMorphology radius="4" operator="erode" in="SourceAlpha" result="shadowSpreadInner1"></feMorphology>
            <feGaussianBlur stdDeviation="6" in="shadowSpreadInner1" result="shadowBlurInner1"></feGaussianBlur>
            <feOffset dx="0" dy="-4" in="shadowBlurInner1" result="shadowOffsetInner1"></feOffset>
            <feComposite in="shadowOffsetInner1" in2="SourceAlpha" operator="arithmetic" k2="-1" k3="1" result="shadowInnerInner1"></feComposite>
            <feColorMatrix values="0 0 0 0 0   0 0 0 0 0   0 0 0 0 0  0 0 0 0.5 0" type="matrix" in="shadowInnerInner1"></feColorMatrix>
        </filter>
    </defs>
    <g id="Web" stroke="none" stroke-width="1" fill="none" fill-rule="evenodd">
        <g id="Frame/iPhone-X-0-Copy">
            <path d="M121,482.225748 C181.796592,482.225748 231.081967,482.342071 231.081967,480.00095 C231.081967,477.65983 181.796592,477.776153 121,477.776153 C60.2034083,477.776153 10.9180328,477.65983 10.9180328,480.00095 C10.9180328,482.342071 60.2034083,482.225748 121,482.225748 Z" id="Shadow" fill="#000000" opacity="0"></path>
            <path d="M1.44262295,62.2943221 L2,62.2943221 L2,81.2050985 L1.44262295,81.2050985 C0.826961262,81.2050985 0.327868852,80.7070607 0.327868852,80.0926999 L0.327868852,63.4067207 C0.327868852,62.79236 0.826961262,62.2943221 1.44262295,62.2943221 Z M1.44262295,105.121669 L2,105.121669 L2,140.718424 L1.44262295,140.718424 C0.826961262,140.718424 0.327868852,140.220386 0.327868852,139.606025 L0.327868852,106.234067 C0.327868852,105.619706 0.826961262,105.121669 1.44262295,105.121669 Z M1.44262295,148.505214 L2,148.505214 L2,184.10197 L1.44262295,184.10197 C0.826961262,184.10197 0.327868852,183.603932 0.327868852,182.989571 L0.327868852,149.617613 C0.327868852,149.003252 0.826961262,148.505214 1.44262295,148.505214 Z M240,103.453071 L240.557377,103.453071 C241.173039,103.453071 241.672131,103.951109 241.672131,104.565469 L241.672131,137.937428 C241.672131,138.551788 241.173039,139.049826 240.557377,139.049826 L240,139.049826 L240,103.453071 Z" id="Side-buttons" fill="#000000"></path>
            <path d="M47.7296245,-1.84362771e-15 L194.270375,1.84362771e-15 C210.171562,-1.07120079e-15 215.937717,1.65214529 221.750953,4.75452877 C227.564189,7.85691225 232.126451,12.4095339 235.235404,18.2104867 C238.344356,24.0114394 240,29.76541 240,45.6329973 L240,434.367003 C240,450.23459 238.344356,455.988561 235.235404,461.789513 C232.126451,467.590466 227.564189,472.143088 221.750953,475.245471 C215.937717,478.347855 210.171562,480 194.270375,480 L47.7296245,480 C31.8284378,480 26.0622833,478.347855 20.2490471,475.245471 C14.4358109,472.143088 9.87354916,467.590466 6.76459642,461.789513 C3.65564369,455.988561 2,450.23459 2,434.367003 L2,45.6329973 C2,29.76541 3.65564369,24.0114394 6.76459642,18.2104867 C9.87354916,12.4095339 14.4358109,7.85691225 20.2490471,4.75452877 C26.0622833,1.65214529 31.8284378,1.07120079e-15 47.7296245,-1.84362771e-15 Z" id="📱-Device" fill="#000000"></path>
            <path d="M45.5810153,14 L197.435378,14 C207.37362,14 210.977466,15.0325908 214.610739,16.9715805 C218.244012,18.9105702 221.095425,21.7559587 223.038521,25.3815542 C224.981616,29.0071496 226.016393,32.6033812 226.016393,42.5206233 L226.016393,437.113212 C226.016393,447.030454 224.981616,450.626686 223.038521,454.252281 C221.095425,457.877877 218.244012,460.723265 214.610739,462.662255 C210.977466,464.601245 207.37362,465.633835 197.435378,465.633835 L45.5810153,465.633835 C35.6427737,465.633835 32.0389271,464.601245 28.4056545,462.662255 C24.7723818,460.723265 21.9209682,457.877877 19.9778728,454.252281 C18.0347773,450.626686 17,447.030454 17,437.113212 L17,42.5206233 C17,32.6033812 18.0347773,29.0071496 19.9778728,25.3815542 C21.9209682,21.7559587 24.7723818,18.9105702 28.4056545,16.9715805 C32.0389271,15.0325908 35.6427737,14 45.5810153,14 Z" id="Screen-Copy" fill-opacity="0.212494537" fill="#FFFFFF"></path>
            <path d="M108.459016,16.6859791 L133.540984,16.6859791 C134.772307,16.6859791 135.770492,17.6820548 135.770492,18.9107764 C135.770492,20.1394979 134.772307,21.1355736 133.540984,21.1355736 L108.459016,21.1355736 C107.227693,21.1355736 106.229508,20.1394979 106.229508,18.9107764 C106.229508,17.6820548 107.227693,16.6859791 108.459016,16.6859791 Z M146.360656,22.2479722 C144.513671,22.2479722 143.016393,20.7538587 143.016393,18.9107764 C143.016393,17.067694 144.513671,15.5735805 146.360656,15.5735805 C148.207641,15.5735805 149.704918,17.067694 149.704918,18.9107764 C149.704918,20.7538587 148.207641,22.2479722 146.360656,22.2479722 Z" id="Top" fill="#191A1C"></path>
            <g id="Shading-2" opacity="0" style="mix-blend-mode: multiply;" fill="black" fill-opacity="1">
                <use filter="url(#filter-2)" xlink:href="#path-1"></use>
            </g>
            <g id="Screen" transform="translate(16.491803, 14.461182)">
                <path d="M28.5810153,-1.15226732e-15 L180.435378,1.15226732e-15 C190.37362,-6.69500495e-16 193.977466,1.03259081 197.610739,2.97158048 C201.244012,4.91057016 204.095425,7.7559587 206.038521,11.3815542 C207.981616,15.0071496 209.016393,18.6033812 209.016393,28.5206233 L209.016393,423.113212 C209.016393,433.030454 207.981616,436.626686 206.038521,440.252281 C204.095425,443.877877 201.244012,446.723265 197.610739,448.662255 C193.977466,450.601245 190.37362,451.633835 180.435378,451.633835 L28.5810153,451.633835 C18.6427737,451.633835 15.0389271,450.601245 11.4056545,448.662255 C7.77238184,446.723265 4.92096822,443.877877 2.97787276,440.252281 C1.0347773,436.626686 4.47278769e-16,433.030454 -7.69804819e-16,423.113212 L7.69804819e-16,28.5206233 C-4.47278769e-16,18.6033812 1.0347773,15.0071496 2.97787276,11.3815542 C4.92096822,7.7559587 7.77238184,4.91057016 11.4056545,2.97158048 C15.0389271,1.03259081 18.6427737,6.69500495e-16 28.5810153,-1.15226732e-15 Z"></path>
            </g>
        </g>
    </g>
</svg>