<svg viewBox="0 0 1081 604" version="1.1" xmlns="http://www.w3.org/2000/svg" xmlns:xlink="http://www.w3.org/1999/xlink" id="el_KOlENIZzQ"><style>@-webkit-keyframes kf_el_dU1Bw0m8_lB_an_h8taezBzH{0%{-webkit-transform: translate(541px, 431px) scale(0, 0) translate(-541px, -431px);transform: translate(541px, 431px) scale(0, 0) translate(-541px, -431px);}25%{-webkit-transform: translate(541px, 431px) scale(1, 1) translate(-541px, -431px);transform: translate(541px, 431px) scale(1, 1) translate(-541px, -431px);}100%{-webkit-transform: translate(541px, 431px) scale(1, 1) translate(-541px, -431px);transform: translate(541px, 431px) scale(1, 1) translate(-541px, -431px);}}@keyframes kf_el_dU1Bw0m8_lB_an_h8taezBzH{0%{-webkit-transform: translate(541px, 431px) scale(0, 0) translate(-541px, -431px);transform: translate(541px, 431px) scale(0, 0) translate(-541px, -431px);}25%{-webkit-transform: translate(541px, 431px) scale(1, 1) translate(-541px, -431px);transform: translate(541px, 431px) scale(1, 1) translate(-541px, -431px);}100%{-webkit-transform: translate(541px, 431px) scale(1, 1) translate(-541px, -431px);transform: translate(541px, 431px) scale(1, 1) translate(-541px, -431px);}}@-webkit-keyframes kf_el_dU1Bw0m8_lB_an_sUMHTXkFb{0%{-webkit-transform: translate(541px, 431px) translate(-541px, -431px) translate(-400px, 58px);transform: translate(541px, 431px) translate(-541px, -431px) translate(-400px, 58px);}25%{-webkit-transform: translate(541px, 431px) translate(-541px, -431px) translate(0px, 0px);transform: translate(541px, 431px) translate(-541px, -431px) translate(0px, 0px);}100%{-webkit-transform: translate(541px, 431px) translate(-541px, -431px) translate(0px, 0px);transform: translate(541px, 431px) translate(-541px, -431px) translate(0px, 0px);}}@keyframes kf_el_dU1Bw0m8_lB_an_sUMHTXkFb{0%{-webkit-transform: translate(541px, 431px) translate(-541px, -431px) translate(-400px, 58px);transform: translate(541px, 431px) translate(-541px, -431px) translate(-400px, 58px);}25%{-webkit-transform: translate(541px, 431px) translate(-541px, -431px) translate(0px, 0px);transform: translate(541px, 431px) translate(-541px, -431px) translate(0px, 0px);}100%{-webkit-transform: translate(541px, 431px) translate(-541px, -431px) translate(0px, 0px);transform: translate(541px, 431px) translate(-541px, -431px) translate(0px, 0px);}}#el_KOlENIZzQ *{-webkit-animation-duration: 2s;animation-duration: 2s;-webkit-animation-iteration-count: 1;animation-iteration-count: 1;-webkit-animation-timing-function: cubic-bezier(0, 0, 1, 1);animation-timing-function: cubic-bezier(0, 0, 1, 1);}#el_h_hIQ_eRb6{stroke: none;stroke-width: 1;fill: none;}#el_kt-PX6dA8E{-webkit-transform: translate(75px, 237px);transform: translate(75px, 237px);}#el_wrk6DzSeJi{fill: #3E78B2;}#el_Ywc3S8lY7S{fill: #EFEFEF;}#el_nWmFgZPreM{fill: #224364;}#el_cxmoI9uvD5{fill: #3E78B2;}#el_kb0yLkG0fb{-webkit-transform: translate(149px, 304px);transform: translate(149px, 304px);fill: #5CD89F;fill-opacity: 0.15;}#el_dxW8vdjX9Mu{fill: #FFFFFF;}#el_dU1Bw0m8_lB{-webkit-transform: translate(541px, 149px);transform: translate(541px, 149px);}#el_0pwmEIxD5zC{fill: #F2F2F2;}#el_xZ1xogWroKv{fill: #C5CFD6;}#el_THt37vwg9Qg{-webkit-transform: translate(404px, 12px);transform: translate(404px, 12px);fill: #FFFFFF;}#el_dU1Bw0m8_lB_an_sUMHTXkFb{-webkit-animation-fill-mode: backwards;animation-fill-mode: backwards;-webkit-transform: translate(541px, 431px) translate(-541px, -431px) translate(-400px, 58px);transform: translate(541px, 431px) translate(-541px, -431px) translate(-400px, 58px);-webkit-animation-name: kf_el_dU1Bw0m8_lB_an_sUMHTXkFb;animation-name: kf_el_dU1Bw0m8_lB_an_sUMHTXkFb;-webkit-animation-timing-function: cubic-bezier(0, 0, 1, 1);animation-timing-function: cubic-bezier(0, 0, 1, 1);}#el_dU1Bw0m8_lB_an_h8taezBzH{-webkit-animation-fill-mode: backwards;animation-fill-mode: backwards;-webkit-transform: translate(541px, 431px) scale(0, 0) translate(-541px, -431px);transform: translate(541px, 431px) scale(0, 0) translate(-541px, -431px);-webkit-animation-name: kf_el_dU1Bw0m8_lB_an_h8taezBzH;animation-name: kf_el_dU1Bw0m8_lB_an_h8taezBzH;-webkit-animation-timing-function: cubic-bezier(0, 0, 1, 1);animation-timing-function: cubic-bezier(0, 0, 1, 1);}</style>
    <!-- Generator: Sketch 54.1 (76490) - https://sketchapp.com -->
    <title>laptop copy</title>
    <desc>Created with Sketch.</desc>
    <g id="el_h_hIQ_eRb6" fill-rule="evenodd">
        <g id="el_kt-PX6dA8E">
            <path d="M33.819426,-5.17920154e-16 L407.180574,5.17920154e-16 C411.638168,-3.00926524e-16 413.254599,0.464128056 414.884229,1.33566352 C416.513858,2.20719898 417.792801,3.48614185 418.664336,5.11577148 C419.535872,6.74540111 420,8.3618323 420,12.819426 L420,269 L21,269 L21,12.819426 C21,8.3618323 21.4641281,6.74540111 22.3356635,5.11577148 C23.207199,3.48614185 24.4861419,2.20719898 26.1157715,1.33566352 C27.7454011,0.464128056 29.3618323,3.00926524e-16 33.819426,-5.17920154e-16 Z" id="el_wrk6DzSeJi"/>
            <path d="M41.819426,8 L400.180574,8 C404.638168,8 406.254599,8.46412806 407.884229,9.33566352 C409.513858,10.207199 410.792801,11.4861419 411.664336,13.1157715 C412.535872,14.7454011 413,16.3618323 413,20.819426 L413,269 L29,269 L29,20.819426 C29,16.3618323 29.4641281,14.7454011 30.3356635,13.1157715 C31.207199,11.4861419 32.4861419,10.207199 34.1157715,9.33566352 C35.7454011,8.46412806 37.3618323,8 41.819426,8 Z" id="el_Ywc3S8lY7S"/>
            <rect id="el_nWmFgZPreM" x="47" y="26" width="347" height="226"/>
            <rect id="el_cxmoI9uvD5" x="0" y="261" width="438" height="17" rx="3"/>
        </g>
        <g id="el_kb0yLkG0fb">
            <rect id="el_wq2jfaZfsa" x="0" y="0" width="13" height="6"/>
            <rect id="el_vMCIT4yCv2" x="0" y="14" width="13" height="6"/>
            <rect id="el_pzUqwoiXS-" x="0" y="53" width="13" height="6"/>
            <rect id="el_X4wuKLRyd9" x="0" y="131" width="13" height="6"/>
            <rect id="el_M0HHoK370b" x="0" y="79" width="13" height="6"/>
            <rect id="el_2-fuxT5lji" x="0" y="28" width="13" height="6"/>
            <rect id="el_J9IpyuzsU0" x="0" y="105" width="13" height="6"/>
            <rect id="el_g6KimEaLZ1" x="0" y="66" width="13" height="6"/>
            <rect id="el_EDm8tBqaoFZ" x="0" y="145" width="13" height="6"/>
        </g>
        <text id="el_dxW8vdjX9Mu" font-family="Montserrat-Medium, Montserrat" font-size="10" font-weight="400">
            <tspan x="167" y="311" id="el_VvvKBi7O7LN">&lt;!DOCTYPE HTML&gt;</tspan>
            <tspan x="167" y="324" id="el_y0vQpfyMclf">&lt;html&gt;</tspan>
            <tspan x="167" y="337" id="el_VqbtEWk91eU">   &lt;body&gt;</tspan>
            <tspan x="167" y="350" id="el_KbhkGN_sV1c"/>
            <tspan x="167" y="363" id="el_A_wnCFgh-MF">     &lt;script&gt;</tspan>
            <tspan x="167" y="376" id="el_kasxWbXqcye">       alert( 'Hello, world!' );</tspan>
            <tspan x="167" y="389" id="el_ql0Mgm3l72x">     &lt;/script&gt;</tspan>
            <tspan x="167" y="402" id="el_X7NY5nD66b4"/>
            <tspan x="167" y="415" id="el_byuiXBA14cJ">     &lt;p&gt;Texto asombroso.&lt;/p&gt;</tspan>
            <tspan x="167" y="428" id="el_Z1NcZ2Ueztw"/>
            <tspan x="167" y="441" id="el_l6HNubg_ITr">   &lt;/body&gt;</tspan>
            <tspan x="167" y="454" id="el_Yfc6SXYa3eB">&lt;/html&gt; </tspan>
        </text>
        <g id="el_dU1Bw0m8_lB_an_sUMHTXkFb" data-animator-group="true" data-animator-type="0"><g id="el_dU1Bw0m8_lB_an_h8taezBzH" data-animator-group="true" data-animator-type="2"><g id="el_dU1Bw0m8_lB">
            <rect id="el_0pwmEIxD5zC" x="0" y="0" width="432" height="282" rx="8"/>
            <path d="M8,0 L424,0 C428.418278,-8.11624501e-16 432,3.581722 432,8 L432,35 L0,35 L0,8 C-5.41083001e-16,3.581722 3.581722,8.11624501e-16 8,0 Z" id="el_xZ1xogWroKv"/>
            <g id="el_THt37vwg9Qg">
                <path d="M1.5386608,0.263992458 L11.7360075,10.4613392 C12.0879975,10.8133291 12.0879975,11.3840176 11.7360075,11.7360075 L11.7360075,11.7360075 C11.3840176,12.0879975 10.8133291,12.0879975 10.4613392,11.7360075 L0.263992458,1.5386608 C-0.0879974859,1.18667086 -0.0879974859,0.615982401 0.263992458,0.263992458 L0.263992458,0.263992458 C0.615982401,-0.0879974859 1.18667086,-0.0879974859 1.5386608,0.263992458 Z" id="el_1PjU4nKkYJB"/>
                <path d="M10.4613392,0.263992458 L0.263992458,10.4613392 C-0.0879974859,10.8133291 -0.0879974859,11.3840176 0.263992458,11.7360075 L0.263992458,11.7360075 C0.615982401,12.0879975 1.18667086,12.0879975 1.5386608,11.7360075 L11.7360075,1.5386608 C12.0879975,1.18667086 12.0879975,0.615982401 11.7360075,0.263992458 L11.7360075,0.263992458 C11.3840176,-0.0879974859 10.8133291,-0.0879974859 10.4613392,0.263992458 Z" id="el_szNHDax0t_P"/>
            </g>
        </g></g></g>
    </g>
</svg>