<?xml version="1.0" encoding="UTF-8"?>
<svg width="194px" height="194px" viewBox="0 0 194 194" version="1.1" xmlns="http://www.w3.org/2000/svg" xmlns:xlink="http://www.w3.org/1999/xlink">
    <!-- Generator: Sketch 53.2 (72643) - https://sketchapp.com -->
    <title>light</title>
    <desc>Created with Sketch.</desc>
    <g id="light" stroke="none" stroke-width="1" fill="none" fill-rule="evenodd">
        <g id="Group-Copy" transform="translate(51.000000, 33.000000)">
            <path d="M4.26325641e-13,51 L91.5927117,51 C89.9251835,68.9754388 78.1733248,83.9810713 62.1261689,90.1539403 C59.5476399,91.1458245 61.5968028,101.107135 58.8204865,101.61858 C56.1328037,102.113697 37.1806261,102.140408 34.4242943,101.61858 C31.9582516,101.151709 32.4285254,91.2470852 30.1179565,90.3987929 C13.7381178,84.3851695 1.69001125,69.2177994 1.4882956e-12,51 Z" id="Combined-Shape" fill="#FFE465"></path>
            <path d="M59.0241306,101.61858 C61.800447,101.107135 59.7512841,91.1458245 62.329813,90.1539403 C79.6736596,83.4822725 92,66.492705 92,46.587403 C92,20.8578908 71.4050985,0 46,0 C20.5949015,0 0,20.8578908 0,46.587403 C0,66.7410205 12.635797,83.9057032 30.3216007,90.3987929 C32.6321696,91.2470852 32.1618957,101.151709 34.6279385,101.61858 C37.3842703,102.140408 56.3364478,102.113697 59.0241306,101.61858 Z" id="Oval-Copy-250" stroke="#E5CD58"></path>
            <path d="M40.2258536,124 L51.7741464,124 C51.0618603,126.308505 48.7464228,128 46,128 C43.2535772,128 40.9381397,126.308505 40.2258536,124 Z" id="Combined-Shape-Copy" fill="#3EA1B2"></path>
            <rect id="Rectangle-Copy-11" fill="#3EA1B2" x="32" y="114" width="29" height="9" rx="4.5"></rect>
            <rect id="Rectangle-Copy-12" fill="#3EA1B2" x="32" y="105" width="29" height="9" rx="4.5"></rect>
        </g>
    </g>
</svg>