<?xml version="1.0" encoding="UTF-8"?>
<svg width="1368px" height="768px" viewBox="0 0 1368 768" version="1.1" xmlns="http://www.w3.org/2000/svg" xmlns:xlink="http://www.w3.org/1999/xlink">
    <!-- Generator: Sketch 53.2 (72643) - https://sketchapp.com -->
    <title> little-lines-turquoise</title>
    <desc>Created with Sketch.</desc>
    <g id="-little-lines-turquoise" stroke="none" stroke-width="1" fill="none" fill-rule="evenodd" stroke-linecap="square">
        <g id="Group-7" stroke="#3EA1B2" stroke-width="0.5">
            <path d="M0.5,0.5 L0.5,11.5" id="Line"></path>
            <path d="M721.5,0.5 L721.5,11.5" id="Line-Copy-300"></path>
            <path d="M258.5,0.5 L258.5,11.5" id="Line-Copy-71"></path>
            <path d="M979.5,0.5 L979.5,11.5" id="Line-Copy-301"></path>
            <path d="M541.5,0.5 L541.5,11.5" id="Line-Copy-155"></path>
            <path d="M1262.5,0.5 L1262.5,11.5" id="Line-Copy-302"></path>
            <path d="M26.5,0.5 L26.5,11.5" id="Line-Copy-9"></path>
            <path d="M747.5,0.5 L747.5,11.5" id="Line-Copy-303"></path>
            <path d="M283.5,0.5 L283.5,11.5" id="Line-Copy-72"></path>
            <path d="M1004.5,0.5 L1004.5,11.5" id="Line-Copy-304"></path>
            <path d="M567.5,0.5 L567.5,11.5" id="Line-Copy-156"></path>
            <path d="M1288.5,0.5 L1288.5,11.5" id="Line-Copy-305"></path>
            <path d="M52.5,0.5 L52.5,11.5" id="Line-Copy-14"></path>
            <path d="M773.5,0.5 L773.5,11.5" id="Line-Copy-306"></path>
            <path d="M309.5,0.5 L309.5,11.5" id="Line-Copy-73"></path>
            <path d="M1030.5,0.5 L1030.5,11.5" id="Line-Copy-307"></path>
            <path d="M592.5,0.5 L592.5,11.5" id="Line-Copy-157"></path>
            <path d="M1313.5,0.5 L1313.5,11.5" id="Line-Copy-308"></path>
            <path d="M155.5,0.5 L155.5,11.5" id="Line-Copy-36"></path>
            <path d="M876.5,0.5 L876.5,11.5" id="Line-Copy-309"></path>
            <path d="M438.5,0.5 L438.5,11.5" id="Line-Copy-158"></path>
            <path d="M1159.5,0.5 L1159.5,11.5" id="Line-Copy-310"></path>
            <path d="M103.5,0.5 L103.5,11.5" id="Line-Copy-21"></path>
            <path d="M824.5,0.5 L824.5,11.5" id="Line-Copy-311"></path>
            <path d="M386.5,0.5 L386.5,11.5" id="Line-Copy-159"></path>
            <path d="M1107.5,0.5 L1107.5,11.5" id="Line-Copy-312"></path>
            <path d="M103.5,92.5 L103.5,103.5" id="Line-Copy-148"></path>
            <path d="M824.5,92.5 L824.5,103.5" id="Line-Copy-313"></path>
            <path d="M386.5,92.5 L386.5,103.5" id="Line-Copy-160"></path>
            <path d="M1107.5,92.5 L1107.5,103.5" id="Line-Copy-314"></path>
            <path d="M361.5,0.5 L361.5,11.5" id="Line-Copy-74"></path>
            <path d="M1082.5,0.5 L1082.5,11.5" id="Line-Copy-315"></path>
            <path d="M644.5,0.5 L644.5,11.5" id="Line-Copy-161"></path>
            <path d="M1365.5,0.5 L1365.5,11.5" id="Line-Copy-316"></path>
            <path d="M695.5,0.5 L695.5,11.5" id="Line-Copy-284"></path>
            <path d="M206.5,0.5 L206.5,11.5" id="Line-Copy-40"></path>
            <path d="M927.5,0.5 L927.5,11.5" id="Line-Copy-318"></path>
            <path d="M489.5,0.5 L489.5,11.5" id="Line-Copy-162"></path>
            <path d="M1210.5,0.5 L1210.5,11.5" id="Line-Copy-319"></path>
            <path d="M129.5,0.5 L129.5,11.5" id="Line-Copy-33"></path>
            <path d="M850.5,0.5 L850.5,11.5" id="Line-Copy-320"></path>
            <path d="M412.5,0.5 L412.5,11.5" id="Line-Copy-163"></path>
            <path d="M1133.5,0.5 L1133.5,11.5" id="Line-Copy-321"></path>
            <path d="M232.5,0.5 L232.5,11.5" id="Line-Copy-41"></path>
            <path d="M953.5,0.5 L953.5,11.5" id="Line-Copy-322"></path>
            <path d="M515.5,0.5 L515.5,11.5" id="Line-Copy-164"></path>
            <path d="M1236.5,0.5 L1236.5,11.5" id="Line-Copy-323"></path>
            <path d="M0.5,14.5 L0.5,22.5" id="Line-Copy-7"></path>
            <path d="M721.5,14.5 L721.5,22.5" id="Line-Copy-324"></path>
            <path d="M258.5,14.5 L258.5,22.5" id="Line-Copy-75"></path>
            <path d="M979.5,14.5 L979.5,22.5" id="Line-Copy-325"></path>
            <path d="M541.5,14.5 L541.5,22.5" id="Line-Copy-165"></path>
            <path d="M1262.5,14.5 L1262.5,22.5" id="Line-Copy-326"></path>
            <path d="M258.5,56.5 L258.5,64.5" id="Line-Copy-102"></path>
            <path d="M979.5,56.5 L979.5,64.5" id="Line-Copy-327"></path>
            <path d="M541.5,56.5 L541.5,64.5" id="Line-Copy-166"></path>
            <path d="M1262.5,56.5 L1262.5,64.5" id="Line-Copy-328"></path>
            <path d="M26.5,14.5 L26.5,22.5" id="Line-Copy-10"></path>
            <path d="M747.5,14.5 L747.5,22.5" id="Line-Copy-329"></path>
            <path d="M283.5,14.5 L283.5,22.5" id="Line-Copy-76"></path>
            <path d="M1004.5,14.5 L1004.5,22.5" id="Line-Copy-330"></path>
            <path d="M567.5,14.5 L567.5,22.5" id="Line-Copy-167"></path>
            <path d="M1288.5,14.5 L1288.5,22.5" id="Line-Copy-331"></path>
            <path d="M283.5,128.5 L283.5,136.5" id="Line-Copy-103"></path>
            <path d="M1004.5,128.5 L1004.5,136.5" id="Line-Copy-332"></path>
            <path d="M567.5,128.5 L567.5,136.5" id="Line-Copy-168"></path>
            <path d="M1288.5,128.5 L1288.5,136.5" id="Line-Copy-333"></path>
            <path d="M283.5,71.5 L283.5,79.5" id="Line-Copy-144"></path>
            <path d="M1004.5,71.5 L1004.5,79.5" id="Line-Copy-334"></path>
            <path d="M567.5,71.5 L567.5,79.5" id="Line-Copy-169"></path>
            <path d="M1288.5,71.5 L1288.5,79.5" id="Line-Copy-335"></path>
            <path d="M77.5,14.5 L77.5,22.5" id="Line-Copy-22"></path>
            <path d="M798.5,14.5 L798.5,22.5" id="Line-Copy-336"></path>
            <path d="M335.5,14.5 L335.5,22.5" id="Line-Copy-77"></path>
            <path d="M1056.5,14.5 L1056.5,22.5" id="Line-Copy-337"></path>
            <path d="M618.5,14.5 L618.5,22.5" id="Line-Copy-170"></path>
            <path d="M1339.5,14.5 L1339.5,22.5" id="Line-Copy-338"></path>
            <path d="M670.5,14.5 L670.5,22.5" id="Line-Copy-285"></path>
            <path d="M335.5,90.5 L335.5,98.5" id="Line-Copy-104"></path>
            <path d="M1056.5,90.5 L1056.5,98.5" id="Line-Copy-340"></path>
            <path d="M618.5,90.5 L618.5,98.5" id="Line-Copy-171"></path>
            <path d="M1339.5,90.5 L1339.5,98.5" id="Line-Copy-341"></path>
            <path d="M670.5,90.5 L670.5,98.5" id="Line-Copy-286"></path>
            <path d="M180.5,14.5 L180.5,22.5" id="Line-Copy-42"></path>
            <path d="M901.5,14.5 L901.5,22.5" id="Line-Copy-343"></path>
            <path d="M464.5,14.5 L464.5,22.5" id="Line-Copy-172"></path>
            <path d="M1185.5,14.5 L1185.5,22.5" id="Line-Copy-344"></path>
            <path d="M77.5,0.5 L77.5,8.5" id="Line-Copy-32"></path>
            <path d="M798.5,0.5 L798.5,8.5" id="Line-Copy-345"></path>
            <path d="M335.5,0.5 L335.5,8.5" id="Line-Copy-78"></path>
            <path d="M1056.5,0.5 L1056.5,8.5" id="Line-Copy-346"></path>
            <path d="M618.5,0.5 L618.5,8.5" id="Line-Copy-173"></path>
            <path d="M1339.5,0.5 L1339.5,8.5" id="Line-Copy-347"></path>
            <path d="M670.5,0.5 L670.5,8.5" id="Line-Copy-287"></path>
            <path d="M180.5,0.5 L180.5,8.5" id="Line-Copy-43"></path>
            <path d="M901.5,0.5 L901.5,8.5" id="Line-Copy-349"></path>
            <path d="M464.5,0.5 L464.5,8.5" id="Line-Copy-174"></path>
            <path d="M1185.5,0.5 L1185.5,8.5" id="Line-Copy-350"></path>
            <path d="M52.5,14.5 L52.5,22.5" id="Line-Copy-15"></path>
            <path d="M773.5,14.5 L773.5,22.5" id="Line-Copy-351"></path>
            <path d="M309.5,14.5 L309.5,22.5" id="Line-Copy-79"></path>
            <path d="M1030.5,14.5 L1030.5,22.5" id="Line-Copy-352"></path>
            <path d="M592.5,14.5 L592.5,22.5" id="Line-Copy-175"></path>
            <path d="M1313.5,14.5 L1313.5,22.5" id="Line-Copy-353"></path>
            <path d="M309.5,166.5 L309.5,174.5" id="Line-Copy-105"></path>
            <path d="M1030.5,166.5 L1030.5,174.5" id="Line-Copy-354"></path>
            <path d="M592.5,166.5 L592.5,174.5" id="Line-Copy-176"></path>
            <path d="M1313.5,166.5 L1313.5,174.5" id="Line-Copy-355"></path>
            <path d="M103.5,14.5 L103.5,22.5" id="Line-Copy-23"></path>
            <path d="M824.5,14.5 L824.5,22.5" id="Line-Copy-356"></path>
            <path d="M386.5,14.5 L386.5,22.5" id="Line-Copy-177"></path>
            <path d="M1107.5,14.5 L1107.5,22.5" id="Line-Copy-357"></path>
            <path d="M103.5,106.5 L103.5,114.5" id="Line-Copy-149"></path>
            <path d="M824.5,106.5 L824.5,114.5" id="Line-Copy-358"></path>
            <path d="M386.5,106.5 L386.5,114.5" id="Line-Copy-178"></path>
            <path d="M1107.5,106.5 L1107.5,114.5" id="Line-Copy-359"></path>
            <path d="M361.5,14.5 L361.5,22.5" id="Line-Copy-80"></path>
            <path d="M1082.5,14.5 L1082.5,22.5" id="Line-Copy-360"></path>
            <path d="M644.5,14.5 L644.5,22.5" id="Line-Copy-179"></path>
            <path d="M1365.5,14.5 L1365.5,22.5" id="Line-Copy-361"></path>
            <path d="M695.5,14.5 L695.5,22.5" id="Line-Copy-288"></path>
            <path d="M361.5,90.5 L361.5,98.5" id="Line-Copy-106"></path>
            <path d="M1082.5,90.5 L1082.5,98.5" id="Line-Copy-363"></path>
            <path d="M644.5,90.5 L644.5,98.5" id="Line-Copy-180"></path>
            <path d="M1365.5,90.5 L1365.5,98.5" id="Line-Copy-364"></path>
            <path d="M695.5,90.5 L695.5,98.5" id="Line-Copy-289"></path>
            <path d="M206.5,14.5 L206.5,22.5" id="Line-Copy-44"></path>
            <path d="M927.5,14.5 L927.5,22.5" id="Line-Copy-366"></path>
            <path d="M489.5,14.5 L489.5,22.5" id="Line-Copy-181"></path>
            <path d="M1210.5,14.5 L1210.5,22.5" id="Line-Copy-367"></path>
            <path d="M206.5,166.5 L206.5,174.5" id="Line-Copy-107"></path>
            <path d="M927.5,166.5 L927.5,174.5" id="Line-Copy-368"></path>
            <path d="M489.5,166.5 L489.5,174.5" id="Line-Copy-182"></path>
            <path d="M1210.5,166.5 L1210.5,174.5" id="Line-Copy-369"></path>
            <path d="M129.5,14.5 L129.5,22.5" id="Line-Copy-34"></path>
            <path d="M850.5,14.5 L850.5,22.5" id="Line-Copy-370"></path>
            <path d="M412.5,14.5 L412.5,22.5" id="Line-Copy-183"></path>
            <path d="M1133.5,14.5 L1133.5,22.5" id="Line-Copy-371"></path>
            <path d="M232.5,14.5 L232.5,22.5" id="Line-Copy-45"></path>
            <path d="M953.5,14.5 L953.5,22.5" id="Line-Copy-372"></path>
            <path d="M515.5,14.5 L515.5,22.5" id="Line-Copy-184"></path>
            <path d="M1236.5,14.5 L1236.5,22.5" id="Line-Copy-373"></path>
            <path d="M232.5,101.5 L232.5,109.5" id="Line-Copy-108"></path>
            <path d="M953.5,101.5 L953.5,109.5" id="Line-Copy-374"></path>
            <path d="M515.5,101.5 L515.5,109.5" id="Line-Copy-185"></path>
            <path d="M1236.5,101.5 L1236.5,109.5" id="Line-Copy-375"></path>
            <path d="M52.5,52.5 L52.5,60.5" id="Line-Copy-18"></path>
            <path d="M773.5,52.5 L773.5,60.5" id="Line-Copy-376"></path>
            <path d="M309.5,52.5 L309.5,60.5" id="Line-Copy-81"></path>
            <path d="M1030.5,52.5 L1030.5,60.5" id="Line-Copy-377"></path>
            <path d="M592.5,52.5 L592.5,60.5" id="Line-Copy-186"></path>
            <path d="M1313.5,52.5 L1313.5,60.5" id="Line-Copy-378"></path>
            <path d="M309.5,204.5 L309.5,212.5" id="Line-Copy-109"></path>
            <path d="M1030.5,204.5 L1030.5,212.5" id="Line-Copy-379"></path>
            <path d="M592.5,204.5 L592.5,212.5" id="Line-Copy-187"></path>
            <path d="M1313.5,204.5 L1313.5,212.5" id="Line-Copy-380"></path>
            <path d="M155.5,52.5 L155.5,60.5" id="Line-Copy-46"></path>
            <path d="M876.5,52.5 L876.5,60.5" id="Line-Copy-381"></path>
            <path d="M438.5,52.5 L438.5,60.5" id="Line-Copy-188"></path>
            <path d="M1159.5,52.5 L1159.5,60.5" id="Line-Copy-382"></path>
            <path d="M155.5,95.5 L155.5,103.5" id="Line-Copy-63"></path>
            <path d="M876.5,95.5 L876.5,103.5" id="Line-Copy-383"></path>
            <path d="M438.5,95.5 L438.5,103.5" id="Line-Copy-189"></path>
            <path d="M1159.5,95.5 L1159.5,103.5" id="Line-Copy-384"></path>
            <path d="M309.5,126.5 L309.5,134.5" id="Line-Copy-97"></path>
            <path d="M1030.5,126.5 L1030.5,134.5" id="Line-Copy-385"></path>
            <path d="M592.5,126.5 L592.5,134.5" id="Line-Copy-190"></path>
            <path d="M1313.5,126.5 L1313.5,134.5" id="Line-Copy-386"></path>
            <path d="M309.5,278.5 L309.5,286.5" id="Line-Copy-110"></path>
            <path d="M1030.5,278.5 L1030.5,286.5" id="Line-Copy-387"></path>
            <path d="M592.5,278.5 L592.5,286.5" id="Line-Copy-191"></path>
            <path d="M721.5,183.5 L721.5,191.5" id="Line-Copy-620"></path>
            <path d="M670.5,146.5 L670.5,154.5" id="Line-Copy-615"></path>
            <path d="M824.5,217.5 L824.5,225.5" id="Line-Copy-610"></path>
            <path d="M773.5,211.5 L773.5,219.5" id="Line-Copy-624"></path>
            <path d="M1313.5,278.5 L1313.5,286.5" id="Line-Copy-388"></path>
            <path d="M103.5,52.5 L103.5,60.5" id="Line-Copy-24"></path>
            <path d="M824.5,52.5 L824.5,60.5" id="Line-Copy-389"></path>
            <path d="M386.5,52.5 L386.5,60.5" id="Line-Copy-192"></path>
            <path d="M1107.5,52.5 L1107.5,60.5" id="Line-Copy-390"></path>
            <path d="M103.5,144.5 L103.5,152.5" id="Line-Copy-150"></path>
            <path d="M824.5,144.5 L824.5,152.5" id="Line-Copy-391"></path>
            <path d="M386.5,144.5 L386.5,152.5" id="Line-Copy-193"></path>
            <path d="M1107.5,144.5 L1107.5,152.5" id="Line-Copy-392"></path>
            <path d="M361.5,52.5 L361.5,60.5" id="Line-Copy-82"></path>
            <path d="M1082.5,52.5 L1082.5,60.5" id="Line-Copy-393"></path>
            <path d="M644.5,52.5 L644.5,60.5" id="Line-Copy-194"></path>
            <path d="M1365.5,52.5 L1365.5,60.5" id="Line-Copy-394"></path>
            <path d="M695.5,52.5 L695.5,60.5" id="Line-Copy-290"></path>
            <path d="M361.5,128.5 L361.5,136.5" id="Line-Copy-111"></path>
            <path d="M1082.5,128.5 L1082.5,136.5" id="Line-Copy-396"></path>
            <path d="M644.5,128.5 L644.5,136.5" id="Line-Copy-195"></path>
            <path d="M1365.5,128.5 L1365.5,136.5" id="Line-Copy-397"></path>
            <path d="M206.5,52.5 L206.5,60.5" id="Line-Copy-47"></path>
            <path d="M927.5,52.5 L927.5,60.5" id="Line-Copy-398"></path>
            <path d="M489.5,52.5 L489.5,60.5" id="Line-Copy-196"></path>
            <path d="M1210.5,52.5 L1210.5,60.5" id="Line-Copy-399"></path>
            <path d="M206.5,204.5 L206.5,212.5" id="Line-Copy-112"></path>
            <path d="M927.5,204.5 L927.5,212.5" id="Line-Copy-400"></path>
            <path d="M721.5,55.5 L721.5,63.5" id="Line-Copy-594"></path>
            <path d="M489.5,204.5 L489.5,212.5" id="Line-Copy-197"></path>
            <path d="M1210.5,204.5 L1210.5,212.5" id="Line-Copy-401"></path>
            <path d="M206.5,95.5 L206.5,103.5" id="Line-Copy-66"></path>
            <path d="M927.5,95.5 L927.5,103.5" id="Line-Copy-402"></path>
            <path d="M489.5,95.5 L489.5,103.5" id="Line-Copy-198"></path>
            <path d="M1210.5,95.5 L1210.5,103.5" id="Line-Copy-403"></path>
            <path d="M206.5,247.5 L206.5,255.5" id="Line-Copy-113"></path>
            <path d="M927.5,247.5 L927.5,255.5" id="Line-Copy-404"></path>
            <path d="M824.5,261.5 L824.5,269.5" id="Line-Copy-628"></path>
            <path d="M824.5,332.5 L824.5,340.5" id="Line-Copy-633"></path>
            <path d="M773.5,125.5 L773.5,133.5" id="Line-Copy-603"></path>
            <path d="M721.5,98.5 L721.5,106.5" id="Line-Copy-595"></path>
            <path d="M489.5,247.5 L489.5,255.5" id="Line-Copy-199"></path>
            <path d="M1210.5,247.5 L1210.5,255.5" id="Line-Copy-405"></path>
            <path d="M206.5,138.5 L206.5,146.5" id="Line-Copy-68"></path>
            <path d="M927.5,138.5 L927.5,146.5" id="Line-Copy-406"></path>
            <path d="M489.5,138.5 L489.5,146.5" id="Line-Copy-200"></path>
            <path d="M1210.5,138.5 L1210.5,146.5" id="Line-Copy-407"></path>
            <path d="M206.5,290.5 L206.5,298.5" id="Line-Copy-114"></path>
            <path d="M927.5,290.5 L927.5,298.5" id="Line-Copy-408"></path>
            <path d="M824.5,304.5 L824.5,312.5" id="Line-Copy-629"></path>
            <path d="M824.5,375.5 L824.5,383.5" id="Line-Copy-634"></path>
            <path d="M773.5,168.5 L773.5,176.5" id="Line-Copy-604"></path>
            <path d="M721.5,141.5 L721.5,149.5" id="Line-Copy-596"></path>
            <path d="M489.5,290.5 L489.5,298.5" id="Line-Copy-201"></path>
            <path d="M1210.5,290.5 L1210.5,298.5" id="Line-Copy-409"></path>
            <path d="M129.5,52.5 L129.5,60.5" id="Line-Copy-35"></path>
            <path d="M850.5,52.5 L850.5,60.5" id="Line-Copy-410"></path>
            <path d="M412.5,52.5 L412.5,60.5" id="Line-Copy-202"></path>
            <path d="M1133.5,52.5 L1133.5,60.5" id="Line-Copy-411"></path>
            <path d="M232.5,52.5 L232.5,60.5" id="Line-Copy-48"></path>
            <path d="M953.5,52.5 L953.5,60.5" id="Line-Copy-412"></path>
            <path d="M515.5,52.5 L515.5,60.5" id="Line-Copy-203"></path>
            <path d="M1236.5,52.5 L1236.5,60.5" id="Line-Copy-413"></path>
            <path d="M232.5,139.5 L232.5,147.5" id="Line-Copy-115"></path>
            <path d="M953.5,139.5 L953.5,147.5" id="Line-Copy-414"></path>
            <path d="M515.5,139.5 L515.5,147.5" id="Line-Copy-204"></path>
            <path d="M1236.5,139.5 L1236.5,147.5" id="Line-Copy-415"></path>
            <path d="M26.5,40.5 L26.5,48.5" id="Line-Copy-12"></path>
            <path d="M747.5,40.5 L747.5,48.5" id="Line-Copy-416"></path>
            <path d="M283.5,40.5 L283.5,48.5" id="Line-Copy-83"></path>
            <path d="M1004.5,40.5 L1004.5,48.5" id="Line-Copy-417"></path>
            <path d="M567.5,40.5 L567.5,48.5" id="Line-Copy-205"></path>
            <path d="M1288.5,40.5 L1288.5,48.5" id="Line-Copy-418"></path>
            <path d="M283.5,154.5 L283.5,162.5" id="Line-Copy-116"></path>
            <path d="M1004.5,154.5 L1004.5,162.5" id="Line-Copy-419"></path>
            <path d="M567.5,154.5 L567.5,162.5" id="Line-Copy-206"></path>
            <path d="M1288.5,154.5 L1288.5,162.5" id="Line-Copy-420"></path>
            <path d="M283.5,97.5 L283.5,105.5" id="Line-Copy-145"></path>
            <path d="M1004.5,97.5 L1004.5,105.5" id="Line-Copy-421"></path>
            <path d="M567.5,97.5 L567.5,105.5" id="Line-Copy-207"></path>
            <path d="M1288.5,97.5 L1288.5,105.5" id="Line-Copy-422"></path>
            <path d="M77.5,40.5 L77.5,48.5" id="Line-Copy-25"></path>
            <path d="M798.5,40.5 L798.5,48.5" id="Line-Copy-423"></path>
            <path d="M335.5,40.5 L335.5,48.5" id="Line-Copy-84"></path>
            <path d="M1056.5,40.5 L1056.5,48.5" id="Line-Copy-424"></path>
            <path d="M618.5,40.5 L618.5,48.5" id="Line-Copy-208"></path>
            <path d="M1339.5,40.5 L1339.5,48.5" id="Line-Copy-425"></path>
            <path d="M670.5,40.5 L670.5,48.5" id="Line-Copy-291"></path>
            <path d="M335.5,116.5 L335.5,124.5" id="Line-Copy-117"></path>
            <path d="M1056.5,116.5 L1056.5,124.5" id="Line-Copy-427"></path>
            <path d="M618.5,116.5 L618.5,124.5" id="Line-Copy-209"></path>
            <path d="M1339.5,116.5 L1339.5,124.5" id="Line-Copy-428"></path>
            <path d="M180.5,40.5 L180.5,48.5" id="Line-Copy-49"></path>
            <path d="M901.5,40.5 L901.5,48.5" id="Line-Copy-429"></path>
            <path d="M464.5,40.5 L464.5,48.5" id="Line-Copy-210"></path>
            <path d="M1185.5,40.5 L1185.5,48.5" id="Line-Copy-430"></path>
            <path d="M52.5,40.5 L52.5,48.5" id="Line-Copy-16"></path>
            <path d="M773.5,40.5 L773.5,48.5" id="Line-Copy-431"></path>
            <path d="M155.5,40.5 L155.5,48.5" id="Line-Copy-50"></path>
            <path d="M876.5,40.5 L876.5,48.5" id="Line-Copy-432"></path>
            <path d="M438.5,40.5 L438.5,48.5" id="Line-Copy-211"></path>
            <path d="M1159.5,40.5 L1159.5,48.5" id="Line-Copy-433"></path>
            <path d="M103.5,40.5 L103.5,48.5" id="Line-Copy-26"></path>
            <path d="M824.5,40.5 L824.5,48.5" id="Line-Copy-434"></path>
            <path d="M386.5,40.5 L386.5,48.5" id="Line-Copy-212"></path>
            <path d="M1107.5,40.5 L1107.5,48.5" id="Line-Copy-435"></path>
            <path d="M103.5,132.5 L103.5,140.5" id="Line-Copy-151"></path>
            <path d="M824.5,128.5 L824.5,136.5" id="Line-Copy-436"></path>
            <path d="M386.5,132.5 L386.5,140.5" id="Line-Copy-213"></path>
            <path d="M1107.5,132.5 L1107.5,140.5" id="Line-Copy-437"></path>
            <path d="M361.5,40.5 L361.5,48.5" id="Line-Copy-85"></path>
            <path d="M1082.5,40.5 L1082.5,48.5" id="Line-Copy-438"></path>
            <path d="M644.5,40.5 L644.5,48.5" id="Line-Copy-214"></path>
            <path d="M1365.5,40.5 L1365.5,48.5" id="Line-Copy-439"></path>
            <path d="M695.5,40.5 L695.5,48.5" id="Line-Copy-292"></path>
            <path d="M361.5,116.5 L361.5,124.5" id="Line-Copy-118"></path>
            <path d="M1082.5,116.5 L1082.5,124.5" id="Line-Copy-441"></path>
            <path d="M644.5,116.5 L644.5,124.5" id="Line-Copy-215"></path>
            <path d="M1365.5,116.5 L1365.5,124.5" id="Line-Copy-442"></path>
            <path d="M206.5,40.5 L206.5,48.5" id="Line-Copy-51"></path>
            <path d="M927.5,40.5 L927.5,48.5" id="Line-Copy-443"></path>
            <path d="M489.5,40.5 L489.5,48.5" id="Line-Copy-216"></path>
            <path d="M1210.5,40.5 L1210.5,48.5" id="Line-Copy-444"></path>
            <path d="M206.5,192.5 L206.5,200.5" id="Line-Copy-119"></path>
            <path d="M927.5,192.5 L927.5,200.5" id="Line-Copy-445"></path>
            <path d="M721.5,43.5 L721.5,51.5" id="Line-Copy-597"></path>
            <path d="M489.5,192.5 L489.5,200.5" id="Line-Copy-217"></path>
            <path d="M1210.5,192.5 L1210.5,200.5" id="Line-Copy-446"></path>
            <path d="M52.5,78.5 L52.5,86.5" id="Line-Copy-19"></path>
            <path d="M773.5,78.5 L773.5,86.5" id="Line-Copy-447"></path>
            <path d="M309.5,78.5 L309.5,86.5" id="Line-Copy-86"></path>
            <path d="M1030.5,78.5 L1030.5,86.5" id="Line-Copy-448"></path>
            <path d="M592.5,78.5 L592.5,86.5" id="Line-Copy-218"></path>
            <path d="M1313.5,78.5 L1313.5,86.5" id="Line-Copy-449"></path>
            <path d="M309.5,230.5 L309.5,238.5" id="Line-Copy-120"></path>
            <path d="M1030.5,230.5 L1030.5,238.5" id="Line-Copy-450"></path>
            <path d="M592.5,230.5 L592.5,238.5" id="Line-Copy-219"></path>
            <path d="M1313.5,230.5 L1313.5,238.5" id="Line-Copy-451"></path>
            <path d="M155.5,78.5 L155.5,86.5" id="Line-Copy-52"></path>
            <path d="M876.5,78.5 L876.5,86.5" id="Line-Copy-452"></path>
            <path d="M438.5,78.5 L438.5,86.5" id="Line-Copy-220"></path>
            <path d="M1159.5,78.5 L1159.5,86.5" id="Line-Copy-453"></path>
            <path d="M309.5,109.5 L309.5,117.5" id="Line-Copy-98"></path>
            <path d="M1030.5,109.5 L1030.5,117.5" id="Line-Copy-454"></path>
            <path d="M592.5,109.5 L592.5,117.5" id="Line-Copy-221"></path>
            <path d="M1313.5,109.5 L1313.5,117.5" id="Line-Copy-455"></path>
            <path d="M309.5,261.5 L309.5,269.5" id="Line-Copy-121"></path>
            <path d="M1030.5,261.5 L1030.5,269.5" id="Line-Copy-456"></path>
            <path d="M592.5,261.5 L592.5,269.5" id="Line-Copy-222"></path>
            <path d="M721.5,166.5 L721.5,174.5" id="Line-Copy-621"></path>
            <path d="M670.5,129.5 L670.5,137.5" id="Line-Copy-616"></path>
            <path d="M824.5,200.5 L824.5,208.5" id="Line-Copy-611"></path>
            <path d="M773.5,194.5 L773.5,202.5" id="Line-Copy-625"></path>
            <path d="M1313.5,261.5 L1313.5,269.5" id="Line-Copy-457"></path>
            <path d="M155.5,121.5 L155.5,129.5" id="Line-Copy-64"></path>
            <path d="M876.5,121.5 L876.5,129.5" id="Line-Copy-458"></path>
            <path d="M438.5,121.5 L438.5,129.5" id="Line-Copy-223"></path>
            <path d="M1159.5,121.5 L1159.5,129.5" id="Line-Copy-459"></path>
            <path d="M309.5,152.5 L309.5,160.5" id="Line-Copy-99"></path>
            <path d="M1030.5,152.5 L1030.5,160.5" id="Line-Copy-460"></path>
            <path d="M592.5,152.5 L592.5,160.5" id="Line-Copy-224"></path>
            <path d="M1313.5,152.5 L1313.5,160.5" id="Line-Copy-461"></path>
            <path d="M309.5,304.5 L309.5,312.5" id="Line-Copy-122"></path>
            <path d="M1030.5,304.5 L1030.5,312.5" id="Line-Copy-462"></path>
            <path d="M592.5,304.5 L592.5,312.5" id="Line-Copy-225"></path>
            <path d="M721.5,209.5 L721.5,217.5" id="Line-Copy-622"></path>
            <path d="M670.5,172.5 L670.5,180.5" id="Line-Copy-617"></path>
            <path d="M824.5,243.5 L824.5,251.5" id="Line-Copy-612"></path>
            <path d="M773.5,237.5 L773.5,245.5" id="Line-Copy-626"></path>
            <path d="M1313.5,304.5 L1313.5,312.5" id="Line-Copy-463"></path>
            <path d="M103.5,78.5 L103.5,86.5" id="Line-Copy-27"></path>
            <path d="M824.5,78.5 L824.5,86.5" id="Line-Copy-464"></path>
            <path d="M386.5,78.5 L386.5,86.5" id="Line-Copy-226"></path>
            <path d="M1107.5,78.5 L1107.5,86.5" id="Line-Copy-465"></path>
            <path d="M103.5,170.5 L103.5,178.5" id="Line-Copy-152"></path>
            <path d="M824.5,170.5 L824.5,178.5" id="Line-Copy-466"></path>
            <path d="M386.5,170.5 L386.5,178.5" id="Line-Copy-227"></path>
            <path d="M1107.5,170.5 L1107.5,178.5" id="Line-Copy-467"></path>
            <path d="M361.5,78.5 L361.5,86.5" id="Line-Copy-87"></path>
            <path d="M1082.5,78.5 L1082.5,86.5" id="Line-Copy-468"></path>
            <path d="M644.5,78.5 L644.5,86.5" id="Line-Copy-228"></path>
            <path d="M1365.5,78.5 L1365.5,86.5" id="Line-Copy-469"></path>
            <path d="M695.5,78.5 L695.5,86.5" id="Line-Copy-293"></path>
            <path d="M361.5,154.5 L361.5,162.5" id="Line-Copy-123"></path>
            <path d="M1082.5,154.5 L1082.5,162.5" id="Line-Copy-471"></path>
            <path d="M644.5,154.5 L644.5,162.5" id="Line-Copy-229"></path>
            <path d="M1365.5,154.5 L1365.5,162.5" id="Line-Copy-472"></path>
            <path d="M206.5,78.5 L206.5,86.5" id="Line-Copy-53"></path>
            <path d="M927.5,78.5 L927.5,86.5" id="Line-Copy-473"></path>
            <path d="M489.5,78.5 L489.5,86.5" id="Line-Copy-230"></path>
            <path d="M1210.5,78.5 L1210.5,86.5" id="Line-Copy-474"></path>
            <path d="M206.5,230.5 L206.5,238.5" id="Line-Copy-124"></path>
            <path d="M927.5,230.5 L927.5,238.5" id="Line-Copy-475"></path>
            <path d="M773.5,108.5 L773.5,116.5" id="Line-Copy-605"></path>
            <path d="M721.5,81.5 L721.5,89.5" id="Line-Copy-598"></path>
            <path d="M489.5,230.5 L489.5,238.5" id="Line-Copy-231"></path>
            <path d="M1210.5,230.5 L1210.5,238.5" id="Line-Copy-476"></path>
            <path d="M206.5,121.5 L206.5,129.5" id="Line-Copy-69"></path>
            <path d="M927.5,121.5 L927.5,129.5" id="Line-Copy-477"></path>
            <path d="M489.5,121.5 L489.5,129.5" id="Line-Copy-232"></path>
            <path d="M1210.5,121.5 L1210.5,129.5" id="Line-Copy-478"></path>
            <path d="M206.5,273.5 L206.5,281.5" id="Line-Copy-125"></path>
            <path d="M927.5,273.5 L927.5,281.5" id="Line-Copy-479"></path>
            <path d="M824.5,287.5 L824.5,295.5" id="Line-Copy-630"></path>
            <path d="M824.5,358.5 L824.5,366.5" id="Line-Copy-635"></path>
            <path d="M773.5,151.5 L773.5,159.5" id="Line-Copy-606"></path>
            <path d="M721.5,124.5 L721.5,132.5" id="Line-Copy-599"></path>
            <path d="M489.5,273.5 L489.5,281.5" id="Line-Copy-233"></path>
            <path d="M1210.5,273.5 L1210.5,281.5" id="Line-Copy-480"></path>
            <path d="M129.5,78.5 L129.5,86.5" id="Line-Copy-37"></path>
            <path d="M850.5,78.5 L850.5,86.5" id="Line-Copy-481"></path>
            <path d="M412.5,78.5 L412.5,86.5" id="Line-Copy-234"></path>
            <path d="M1133.5,78.5 L1133.5,86.5" id="Line-Copy-482"></path>
            <path d="M232.5,78.5 L232.5,86.5" id="Line-Copy-54"></path>
            <path d="M953.5,78.5 L953.5,86.5" id="Line-Copy-483"></path>
            <path d="M515.5,78.5 L515.5,86.5" id="Line-Copy-235"></path>
            <path d="M1236.5,78.5 L1236.5,86.5" id="Line-Copy-484"></path>
            <path d="M232.5,165.5 L232.5,173.5" id="Line-Copy-126"></path>
            <path d="M953.5,165.5 L953.5,173.5" id="Line-Copy-485"></path>
            <path d="M515.5,165.5 L515.5,173.5" id="Line-Copy-236"></path>
            <path d="M1236.5,165.5 L1236.5,173.5" id="Line-Copy-486"></path>
            <path d="M0.5,26.5 L0.5,34.5" id="Line-Copy-8"></path>
            <path d="M721.5,26.5 L721.5,34.5" id="Line-Copy-487"></path>
            <path d="M258.5,26.5 L258.5,34.5" id="Line-Copy-88"></path>
            <path d="M979.5,26.5 L979.5,34.5" id="Line-Copy-488"></path>
            <path d="M541.5,26.5 L541.5,34.5" id="Line-Copy-237"></path>
            <path d="M1262.5,26.5 L1262.5,34.5" id="Line-Copy-489"></path>
            <path d="M258.5,68.5 L258.5,76.5" id="Line-Copy-127"></path>
            <path d="M979.5,68.5 L979.5,76.5" id="Line-Copy-490"></path>
            <path d="M541.5,68.5 L541.5,76.5" id="Line-Copy-238"></path>
            <path d="M1262.5,68.5 L1262.5,76.5" id="Line-Copy-491"></path>
            <path d="M26.5,26.5 L26.5,34.5" id="Line-Copy-11"></path>
            <path d="M747.5,26.5 L747.5,34.5" id="Line-Copy-492"></path>
            <path d="M283.5,26.5 L283.5,34.5" id="Line-Copy-89"></path>
            <path d="M1004.5,26.5 L1004.5,34.5" id="Line-Copy-493"></path>
            <path d="M567.5,26.5 L567.5,34.5" id="Line-Copy-239"></path>
            <path d="M1288.5,26.5 L1288.5,34.5" id="Line-Copy-494"></path>
            <path d="M283.5,140.5 L283.5,148.5" id="Line-Copy-128"></path>
            <path d="M1004.5,140.5 L1004.5,148.5" id="Line-Copy-495"></path>
            <path d="M567.5,140.5 L567.5,148.5" id="Line-Copy-240"></path>
            <path d="M1288.5,140.5 L1288.5,148.5" id="Line-Copy-496"></path>
            <path d="M283.5,83.5 L283.5,91.5" id="Line-Copy-146"></path>
            <path d="M1004.5,83.5 L1004.5,91.5" id="Line-Copy-497"></path>
            <path d="M567.5,83.5 L567.5,91.5" id="Line-Copy-241"></path>
            <path d="M1288.5,83.5 L1288.5,91.5" id="Line-Copy-498"></path>
            <path d="M77.5,26.5 L77.5,34.5" id="Line-Copy-28"></path>
            <path d="M798.5,26.5 L798.5,34.5" id="Line-Copy-499"></path>
            <path d="M335.5,26.5 L335.5,34.5" id="Line-Copy-90"></path>
            <path d="M1056.5,26.5 L1056.5,34.5" id="Line-Copy-500"></path>
            <path d="M618.5,26.5 L618.5,34.5" id="Line-Copy-242"></path>
            <path d="M1339.5,26.5 L1339.5,34.5" id="Line-Copy-501"></path>
            <path d="M670.5,26.5 L670.5,34.5" id="Line-Copy-294"></path>
            <path d="M335.5,102.5 L335.5,110.5" id="Line-Copy-129"></path>
            <path d="M1056.5,102.5 L1056.5,110.5" id="Line-Copy-503"></path>
            <path d="M618.5,102.5 L618.5,110.5" id="Line-Copy-243"></path>
            <path d="M1339.5,102.5 L1339.5,110.5" id="Line-Copy-504"></path>
            <path d="M670.5,102.5 L670.5,110.5" id="Line-Copy-295"></path>
            <path d="M180.5,26.5 L180.5,34.5" id="Line-Copy-55"></path>
            <path d="M901.5,26.5 L901.5,34.5" id="Line-Copy-506"></path>
            <path d="M464.5,26.5 L464.5,34.5" id="Line-Copy-244"></path>
            <path d="M1185.5,26.5 L1185.5,34.5" id="Line-Copy-507"></path>
            <path d="M52.5,26.5 L52.5,34.5" id="Line-Copy-17"></path>
            <path d="M773.5,26.5 L773.5,34.5" id="Line-Copy-508"></path>
            <path d="M309.5,26.5 L309.5,34.5" id="Line-Copy-91"></path>
            <path d="M1030.5,26.5 L1030.5,34.5" id="Line-Copy-509"></path>
            <path d="M592.5,26.5 L592.5,34.5" id="Line-Copy-245"></path>
            <path d="M1313.5,26.5 L1313.5,34.5" id="Line-Copy-510"></path>
            <path d="M309.5,178.5 L309.5,186.5" id="Line-Copy-130"></path>
            <path d="M1030.5,178.5 L1030.5,186.5" id="Line-Copy-511"></path>
            <path d="M592.5,178.5 L592.5,186.5" id="Line-Copy-246"></path>
            <path d="M1313.5,178.5 L1313.5,186.5" id="Line-Copy-512"></path>
            <path d="M155.5,26.5 L155.5,34.5" id="Line-Copy-56"></path>
            <path d="M876.5,26.5 L876.5,34.5" id="Line-Copy-513"></path>
            <path d="M438.5,26.5 L438.5,34.5" id="Line-Copy-247"></path>
            <path d="M1159.5,26.5 L1159.5,34.5" id="Line-Copy-514"></path>
            <path d="M103.5,26.5 L103.5,34.5" id="Line-Copy-29"></path>
            <path d="M824.5,26.5 L824.5,34.5" id="Line-Copy-515"></path>
            <path d="M386.5,26.5 L386.5,34.5" id="Line-Copy-248"></path>
            <path d="M1107.5,26.5 L1107.5,34.5" id="Line-Copy-516"></path>
            <path d="M103.5,141.5 L103.5,149.5" id="Line-Copy-153"></path>
            <path d="M386.5,141.5 L386.5,149.5" id="Line-Copy-249"></path>
            <path d="M1107.5,141.5 L1107.5,149.5" id="Line-Copy-518"></path>
            <path d="M361.5,26.5 L361.5,34.5" id="Line-Copy-92"></path>
            <path d="M1082.5,26.5 L1082.5,34.5" id="Line-Copy-519"></path>
            <path d="M644.5,26.5 L644.5,34.5" id="Line-Copy-250"></path>
            <path d="M1365.5,26.5 L1365.5,34.5" id="Line-Copy-520"></path>
            <path d="M695.5,26.5 L695.5,34.5" id="Line-Copy-296"></path>
            <path d="M361.5,102.5 L361.5,110.5" id="Line-Copy-131"></path>
            <path d="M1082.5,102.5 L1082.5,110.5" id="Line-Copy-522"></path>
            <path d="M644.5,102.5 L644.5,110.5" id="Line-Copy-251"></path>
            <path d="M1365.5,102.5 L1365.5,110.5" id="Line-Copy-523"></path>
            <path d="M695.5,102.5 L695.5,110.5" id="Line-Copy-297"></path>
            <path d="M206.5,26.5 L206.5,34.5" id="Line-Copy-57"></path>
            <path d="M927.5,26.5 L927.5,34.5" id="Line-Copy-525"></path>
            <path d="M489.5,26.5 L489.5,34.5" id="Line-Copy-252"></path>
            <path d="M1210.5,26.5 L1210.5,34.5" id="Line-Copy-526"></path>
            <path d="M206.5,178.5 L206.5,186.5" id="Line-Copy-132"></path>
            <path d="M927.5,178.5 L927.5,186.5" id="Line-Copy-527"></path>
            <path d="M489.5,178.5 L489.5,186.5" id="Line-Copy-253"></path>
            <path d="M1210.5,178.5 L1210.5,186.5" id="Line-Copy-528"></path>
            <path d="M129.5,26.5 L129.5,34.5" id="Line-Copy-38"></path>
            <path d="M850.5,26.5 L850.5,34.5" id="Line-Copy-529"></path>
            <path d="M412.5,26.5 L412.5,34.5" id="Line-Copy-254"></path>
            <path d="M1133.5,26.5 L1133.5,34.5" id="Line-Copy-530"></path>
            <path d="M232.5,26.5 L232.5,34.5" id="Line-Copy-58"></path>
            <path d="M953.5,26.5 L953.5,34.5" id="Line-Copy-531"></path>
            <path d="M515.5,26.5 L515.5,34.5" id="Line-Copy-255"></path>
            <path d="M1236.5,26.5 L1236.5,34.5" id="Line-Copy-532"></path>
            <path d="M232.5,178.5 L232.5,186.5" id="Line-Copy-133"></path>
            <path d="M953.5,178.5 L953.5,186.5" id="Line-Copy-533"></path>
            <path d="M515.5,178.5 L515.5,186.5" id="Line-Copy-256"></path>
            <path d="M1236.5,178.5 L1236.5,186.5" id="Line-Copy-534"></path>
            <path d="M52.5,64.5 L52.5,72.5" id="Line-Copy-20"></path>
            <path d="M773.5,64.5 L773.5,72.5" id="Line-Copy-535"></path>
            <path d="M309.5,64.5 L309.5,72.5" id="Line-Copy-93"></path>
            <path d="M1030.5,64.5 L1030.5,72.5" id="Line-Copy-536"></path>
            <path d="M592.5,64.5 L592.5,72.5" id="Line-Copy-257"></path>
            <path d="M1313.5,64.5 L1313.5,72.5" id="Line-Copy-537"></path>
            <path d="M309.5,216.5 L309.5,224.5" id="Line-Copy-134"></path>
            <path d="M1030.5,216.5 L1030.5,224.5" id="Line-Copy-538"></path>
            <path d="M592.5,216.5 L592.5,224.5" id="Line-Copy-258"></path>
            <path d="M1313.5,216.5 L1313.5,224.5" id="Line-Copy-539"></path>
            <path d="M155.5,64.5 L155.5,72.5" id="Line-Copy-59"></path>
            <path d="M876.5,64.5 L876.5,72.5" id="Line-Copy-540"></path>
            <path d="M438.5,64.5 L438.5,72.5" id="Line-Copy-259"></path>
            <path d="M1159.5,64.5 L1159.5,72.5" id="Line-Copy-541"></path>
            <path d="M309.5,95.5 L309.5,103.5" id="Line-Copy-100"></path>
            <path d="M1030.5,95.5 L1030.5,103.5" id="Line-Copy-542"></path>
            <path d="M592.5,95.5 L592.5,103.5" id="Line-Copy-260"></path>
            <path d="M1313.5,95.5 L1313.5,103.5" id="Line-Copy-543"></path>
            <path d="M309.5,247.5 L309.5,255.5" id="Line-Copy-135"></path>
            <path d="M1030.5,247.5 L1030.5,255.5" id="Line-Copy-544"></path>
            <path d="M592.5,247.5 L592.5,255.5" id="Line-Copy-261"></path>
            <path d="M670.5,115.5 L670.5,123.5" id="Line-Copy-618"></path>
            <path d="M824.5,186.5 L824.5,194.5" id="Line-Copy-613"></path>
            <path d="M1313.5,247.5 L1313.5,255.5" id="Line-Copy-545"></path>
            <path d="M155.5,107.5 L155.5,115.5" id="Line-Copy-65"></path>
            <path d="M876.5,107.5 L876.5,115.5" id="Line-Copy-546"></path>
            <path d="M438.5,107.5 L438.5,115.5" id="Line-Copy-262"></path>
            <path d="M1159.5,107.5 L1159.5,115.5" id="Line-Copy-547"></path>
            <path d="M309.5,138.5 L309.5,146.5" id="Line-Copy-101"></path>
            <path d="M1030.5,138.5 L1030.5,146.5" id="Line-Copy-548"></path>
            <path d="M592.5,138.5 L592.5,146.5" id="Line-Copy-263"></path>
            <path d="M1313.5,138.5 L1313.5,146.5" id="Line-Copy-549"></path>
            <path d="M309.5,290.5 L309.5,298.5" id="Line-Copy-136"></path>
            <path d="M1030.5,290.5 L1030.5,298.5" id="Line-Copy-550"></path>
            <path d="M592.5,290.5 L592.5,298.5" id="Line-Copy-264"></path>
            <path d="M721.5,195.5 L721.5,203.5" id="Line-Copy-623"></path>
            <path d="M670.5,158.5 L670.5,166.5" id="Line-Copy-619"></path>
            <path d="M824.5,229.5 L824.5,237.5" id="Line-Copy-614"></path>
            <path d="M773.5,223.5 L773.5,231.5" id="Line-Copy-627"></path>
            <path d="M1313.5,290.5 L1313.5,298.5" id="Line-Copy-551"></path>
            <path d="M103.5,64.5 L103.5,72.5" id="Line-Copy-30"></path>
            <path d="M824.5,64.5 L824.5,72.5" id="Line-Copy-552"></path>
            <path d="M386.5,64.5 L386.5,72.5" id="Line-Copy-265"></path>
            <path d="M1107.5,64.5 L1107.5,72.5" id="Line-Copy-553"></path>
            <path d="M103.5,156.5 L103.5,164.5" id="Line-Copy-154"></path>
            <path d="M824.5,156.5 L824.5,164.5" id="Line-Copy-554"></path>
            <path d="M386.5,156.5 L386.5,164.5" id="Line-Copy-266"></path>
            <path d="M1107.5,156.5 L1107.5,164.5" id="Line-Copy-555"></path>
            <path d="M361.5,64.5 L361.5,72.5" id="Line-Copy-94"></path>
            <path d="M1082.5,64.5 L1082.5,72.5" id="Line-Copy-556"></path>
            <path d="M644.5,64.5 L644.5,72.5" id="Line-Copy-267"></path>
            <path d="M1365.5,64.5 L1365.5,72.5" id="Line-Copy-557"></path>
            <path d="M695.5,64.5 L695.5,72.5" id="Line-Copy-298"></path>
            <path d="M361.5,140.5 L361.5,148.5" id="Line-Copy-137"></path>
            <path d="M1082.5,140.5 L1082.5,148.5" id="Line-Copy-559"></path>
            <path d="M644.5,140.5 L644.5,148.5" id="Line-Copy-268"></path>
            <path d="M1365.5,140.5 L1365.5,148.5" id="Line-Copy-560"></path>
            <path d="M206.5,64.5 L206.5,72.5" id="Line-Copy-60"></path>
            <path d="M927.5,64.5 L927.5,72.5" id="Line-Copy-561"></path>
            <path d="M489.5,64.5 L489.5,72.5" id="Line-Copy-269"></path>
            <path d="M1210.5,64.5 L1210.5,72.5" id="Line-Copy-562"></path>
            <path d="M206.5,216.5 L206.5,224.5" id="Line-Copy-138"></path>
            <path d="M927.5,216.5 L927.5,224.5" id="Line-Copy-563"></path>
            <path d="M773.5,94.5 L773.5,102.5" id="Line-Copy-607"></path>
            <path d="M721.5,67.5 L721.5,75.5" id="Line-Copy-600"></path>
            <path d="M489.5,216.5 L489.5,224.5" id="Line-Copy-270"></path>
            <path d="M1210.5,216.5 L1210.5,224.5" id="Line-Copy-564"></path>
            <path d="M206.5,107.5 L206.5,115.5" id="Line-Copy-67"></path>
            <path d="M927.5,107.5 L927.5,115.5" id="Line-Copy-565"></path>
            <path d="M489.5,107.5 L489.5,115.5" id="Line-Copy-271"></path>
            <path d="M1210.5,107.5 L1210.5,115.5" id="Line-Copy-566"></path>
            <path d="M206.5,259.5 L206.5,267.5" id="Line-Copy-139"></path>
            <path d="M927.5,259.5 L927.5,267.5" id="Line-Copy-567"></path>
            <path d="M824.5,273.5 L824.5,281.5" id="Line-Copy-631"></path>
            <path d="M824.5,344.5 L824.5,352.5" id="Line-Copy-636"></path>
            <path d="M773.5,137.5 L773.5,145.5" id="Line-Copy-608"></path>
            <path d="M721.5,110.5 L721.5,118.5" id="Line-Copy-601"></path>
            <path d="M489.5,259.5 L489.5,267.5" id="Line-Copy-272"></path>
            <path d="M1210.5,259.5 L1210.5,267.5" id="Line-Copy-568"></path>
            <path d="M206.5,150.5 L206.5,158.5" id="Line-Copy-70"></path>
            <path d="M927.5,150.5 L927.5,158.5" id="Line-Copy-569"></path>
            <path d="M489.5,150.5 L489.5,158.5" id="Line-Copy-273"></path>
            <path d="M1210.5,150.5 L1210.5,158.5" id="Line-Copy-570"></path>
            <path d="M206.5,302.5 L206.5,310.5" id="Line-Copy-140"></path>
            <path d="M927.5,302.5 L927.5,310.5" id="Line-Copy-571"></path>
            <path d="M824.5,316.5 L824.5,324.5" id="Line-Copy-632"></path>
            <path d="M824.5,387.5 L824.5,395.5" id="Line-Copy-637"></path>
            <path d="M773.5,180.5 L773.5,188.5" id="Line-Copy-609"></path>
            <path d="M721.5,153.5 L721.5,161.5" id="Line-Copy-602"></path>
            <path d="M489.5,302.5 L489.5,310.5" id="Line-Copy-274"></path>
            <path d="M1210.5,302.5 L1210.5,310.5" id="Line-Copy-572"></path>
            <path d="M129.5,64.5 L129.5,72.5" id="Line-Copy-39"></path>
            <path d="M850.5,64.5 L850.5,72.5" id="Line-Copy-573"></path>
            <path d="M412.5,64.5 L412.5,72.5" id="Line-Copy-275"></path>
            <path d="M1133.5,64.5 L1133.5,72.5" id="Line-Copy-574"></path>
            <path d="M232.5,64.5 L232.5,72.5" id="Line-Copy-61"></path>
            <path d="M953.5,64.5 L953.5,72.5" id="Line-Copy-575"></path>
            <path d="M515.5,64.5 L515.5,72.5" id="Line-Copy-276"></path>
            <path d="M1236.5,64.5 L1236.5,72.5" id="Line-Copy-576"></path>
            <path d="M232.5,151.5 L232.5,159.5" id="Line-Copy-141"></path>
            <path d="M953.5,151.5 L953.5,159.5" id="Line-Copy-577"></path>
            <path d="M515.5,151.5 L515.5,159.5" id="Line-Copy-277"></path>
            <path d="M1236.5,151.5 L1236.5,159.5" id="Line-Copy-578"></path>
            <path d="M26.5,52.5 L26.5,60.5" id="Line-Copy-13"></path>
            <path d="M747.5,52.5 L747.5,60.5" id="Line-Copy-579"></path>
            <path d="M283.5,52.5 L283.5,60.5" id="Line-Copy-95"></path>
            <path d="M1004.5,52.5 L1004.5,60.5" id="Line-Copy-580"></path>
            <path d="M567.5,52.5 L567.5,60.5" id="Line-Copy-278"></path>
            <path d="M1288.5,52.5 L1288.5,60.5" id="Line-Copy-581"></path>
            <path d="M283.5,166.5 L283.5,174.5" id="Line-Copy-142"></path>
            <path d="M1004.5,166.5 L1004.5,174.5" id="Line-Copy-582"></path>
            <path d="M567.5,166.5 L567.5,174.5" id="Line-Copy-279"></path>
            <path d="M1288.5,166.5 L1288.5,174.5" id="Line-Copy-583"></path>
            <path d="M283.5,109.5 L283.5,117.5" id="Line-Copy-147"></path>
            <path d="M1004.5,109.5 L1004.5,117.5" id="Line-Copy-584"></path>
            <path d="M567.5,109.5 L567.5,117.5" id="Line-Copy-280"></path>
            <path d="M1288.5,109.5 L1288.5,117.5" id="Line-Copy-585"></path>
            <path d="M77.5,52.5 L77.5,60.5" id="Line-Copy-31"></path>
            <path d="M798.5,52.5 L798.5,60.5" id="Line-Copy-586"></path>
            <path d="M335.5,52.5 L335.5,60.5" id="Line-Copy-96"></path>
            <path d="M1056.5,52.5 L1056.5,60.5" id="Line-Copy-587"></path>
            <path d="M618.5,52.5 L618.5,60.5" id="Line-Copy-281"></path>
            <path d="M1339.5,52.5 L1339.5,60.5" id="Line-Copy-588"></path>
            <path d="M670.5,52.5 L670.5,60.5" id="Line-Copy-299"></path>
            <path d="M335.5,128.5 L335.5,136.5" id="Line-Copy-143"></path>
            <path d="M1056.5,128.5 L1056.5,136.5" id="Line-Copy-590"></path>
            <path d="M618.5,128.5 L618.5,136.5" id="Line-Copy-282"></path>
            <path d="M1339.5,128.5 L1339.5,136.5" id="Line-Copy-591"></path>
            <path d="M180.5,52.5 L180.5,60.5" id="Line-Copy-62"></path>
            <path d="M901.5,52.5 L901.5,60.5" id="Line-Copy-592"></path>
            <path d="M464.5,52.5 L464.5,60.5" id="Line-Copy-283"></path>
            <path d="M1185.5,52.5 L1185.5,60.5" id="Line-Copy-593"></path>
        </g>
    </g>
</svg>