<?xml version="1.0" encoding="UTF-8"?>
<svg width="40px" height="40px" viewBox="0 0 40 40" version="1.1" xmlns="http://www.w3.org/2000/svg" xmlns:xlink="http://www.w3.org/1999/xlink">
    <!-- Generator: Sketch 53.2 (72643) - https://sketchapp.com -->
    <title>linkedin-icon</title>
    <desc>Created with Sketch.</desc>
    <defs>
        <rect id="path-1" x="0" y="0" width="40" height="40"></rect>
    </defs>
    <g id="Web" stroke="none" stroke-width="1" fill="none" fill-rule="evenodd">
        <g id="30contact-copy-3" transform="translate(-188.000000, -559.000000)">
            <g id="linkedin-icon" transform="translate(188.000000, 559.000000)">
                <mask id="mask-2" fill="white">
                    <use xlink:href="#path-1"></use>
                </mask>
                <g id="Background"></g>
                <path d="M9.09090909,10.9090909 C10.0927273,10.9090909 10.9090909,10.0927273 10.9090909,9.09090909 C10.9090909,8.08909091 10.0927273,7.27272727 9.09090909,7.27272727 C8.08909091,7.27272727 7.27272727,8.08909091 7.27272727,9.09090909 C7.27272727,10.0927273 8.08909091,10.9090909 9.09090909,10.9090909 Z M9.09090909,5.45454545 C11.0963636,5.45454545 12.7272727,7.08545455 12.7272727,9.09090909 C12.7272727,11.0963636 11.0963636,12.7272727 9.09090909,12.7272727 C7.08545455,12.7272727 5.45454545,11.0963636 5.45454545,9.09090909 C5.45454545,7.08545455 7.08545455,5.45454545 9.09090909,5.45454545 Z" id="Fill-177" fill="#224364" fill-rule="evenodd" mask="url(#mask-2)"></path>
                <path d="M7.27272727,32.7272727 L10.9090909,32.7272727 L10.9090909,16.3636364 L7.27272727,16.3636364 L7.27272727,32.7272727 Z M11.8181818,14.5454545 L6.36363636,14.5454545 C5.86181818,14.5454545 5.45454545,14.9527273 5.45454545,15.4545455 L5.45454545,33.6363636 C5.45454545,34.1381818 5.86181818,34.5454545 6.36363636,34.5454545 L11.8181818,34.5454545 C12.32,34.5454545 12.7272727,34.1381818 12.7272727,33.6363636 L12.7272727,15.4545455 C12.7272727,14.9527273 12.32,14.5454545 11.8181818,14.5454545 L11.8181818,14.5454545 Z" id="Fill-179" fill="#224364" fill-rule="evenodd" mask="url(#mask-2)"></path>
                <path d="M32.7272727,32.7272727 L29.0909091,32.7272727 L29.0909091,23.6363636 C29.0909091,19.8690909 26.8072727,18.1818182 24.5454545,18.1818182 C22.2836364,18.1818182 20,19.8690909 20,23.6363636 L20,32.7272727 L16.3636364,32.7272727 L16.3636364,16.3636364 L20,16.3636364 L20,18.1836364 C20,18.5636364 20.2363636,18.9036364 20.5927273,19.0363636 C20.9472727,19.1690909 21.3509091,19.0672727 21.5963636,18.7781818 C22.9490909,17.2127273 24.1090909,16.3636364 26.3636364,16.3636364 C30.2890909,16.3636364 32.7272727,19.1509091 32.7272727,23.6363636 L32.7272727,32.7272727 Z M26.3636364,14.5454545 C24.3927273,14.5454545 23,15.1018182 21.8181818,16.0254545 L21.8181818,15.4545455 C21.8181818,14.9527273 21.4109091,14.5454545 20.9090909,14.5454545 L15.4545455,14.5454545 C14.9527273,14.5454545 14.5454545,14.9527273 14.5454545,15.4545455 L14.5454545,33.6363636 C14.5454545,34.1381818 14.9527273,34.5454545 15.4545455,34.5454545 L20.9090909,34.5454545 C21.4109091,34.5454545 21.8181818,34.1381818 21.8181818,33.6363636 L21.8181818,23.6363636 C21.8181818,21.36 22.8381818,20 24.5454545,20 C26.2527273,20 27.2727273,21.36 27.2727273,23.6363636 L27.2727273,33.6363636 C27.2727273,34.1381818 27.68,34.5454545 28.1818182,34.5454545 L33.6363636,34.5454545 C34.1381818,34.5454545 34.5454545,34.1381818 34.5454545,33.6363636 L34.5454545,23.6363636 C34.5454545,18.1127273 31.3327273,14.5454545 26.3636364,14.5454545 L26.3636364,14.5454545 Z" id="Fill-181" fill="#224364" fill-rule="evenodd" mask="url(#mask-2)"></path>
                <path d="M38.1818182,36.3636364 C38.1818182,37.3654545 37.3654545,38.1818182 36.3636364,38.1818182 L3.63636364,38.1818182 C2.63454545,38.1818182 1.81818182,37.3654545 1.81818182,36.3636364 L1.81818182,3.63636364 C1.81818182,2.63454545 2.63454545,1.81818182 3.63636364,1.81818182 L36.3636364,1.81818182 C37.3654545,1.81818182 38.1818182,2.63454545 38.1818182,3.63636364 L38.1818182,36.3636364 Z M36.3636364,0 L3.63636364,0 C1.63090909,0 0,1.63090909 0,3.63636364 L0,36.3636364 C0,38.3690909 1.63090909,40 3.63636364,40 L36.3636364,40 C38.3690909,40 40,38.3690909 40,36.3636364 L40,3.63636364 C40,1.63090909 38.3690909,0 36.3636364,0 L36.3636364,0 Z" id="Fill-182" fill="#224364" fill-rule="evenodd" mask="url(#mask-2)"></path>
            </g>
        </g>
    </g>
</svg>