<?xml version="1.0" encoding="UTF-8"?>
<svg width="485px" height="471px" viewBox="0 0 485 471" version="1.1" xmlns="http://www.w3.org/2000/svg" xmlns:xlink="http://www.w3.org/1999/xlink">
    <!-- Generator: Sketch 53.2 (72643) - https://sketchapp.com -->
    <title>modal</title>
    <desc>Created with Sketch.</desc>
    <g id="modal" stroke="none" stroke-width="1" fill="none" fill-rule="evenodd">
        <g id="Web-Copy" transform="translate(27.000000, 115.000000)">
            <rect id="Container" fill="#F2F2F2" x="0" y="0" width="432" height="282" rx="8"></rect>
            <path d="M8,0 L424,0 C428.418278,-8.11624501e-16 432,3.581722 432,8 L432,35 L0,35 L0,8 C-5.41083001e-16,3.581722 3.581722,8.11624501e-16 8,0 Z" id="Header" fill="#C5CFD6"></path>
            <g id="equis" transform="translate(404.000000, 12.000000)" fill="#FFFFFF">
                <path d="M1.5386608,0.263992458 L11.7360075,10.4613392 C12.0879975,10.8133291 12.0879975,11.3840176 11.7360075,11.7360075 L11.7360075,11.7360075 C11.3840176,12.0879975 10.8133291,12.0879975 10.4613392,11.7360075 L0.263992458,1.5386608 C-0.0879974859,1.18667086 -0.0879974859,0.615982401 0.263992458,0.263992458 L0.263992458,0.263992458 C0.615982401,-0.0879974859 1.18667086,-0.0879974859 1.5386608,0.263992458 Z" id="Rectangle"></path>
                <path d="M10.4613392,0.263992458 L0.263992458,10.4613392 C-0.0879974859,10.8133291 -0.0879974859,11.3840176 0.263992458,11.7360075 L0.263992458,11.7360075 C0.615982401,12.0879975 1.18667086,12.0879975 1.5386608,11.7360075 L11.7360075,1.5386608 C12.0879975,1.18667086 12.0879975,0.615982401 11.7360075,0.263992458 L11.7360075,0.263992458 C11.3840176,-0.0879974859 10.8133291,-0.0879974859 10.4613392,0.263992458 Z" id="Rectangle-Copy-2"></path>
            </g>
        </g>
    </g>
</svg>