<?xml version="1.0" encoding="UTF-8"?>
<svg width="552px" height="471px" viewBox="0 0 552 471" version="1.1" xmlns="http://www.w3.org/2000/svg" xmlns:xlink="http://www.w3.org/1999/xlink">
    <!-- Generator: Sketch 53.2 (72643) - https://sketchapp.com -->
    <title>paint splash</title>
    <desc>Created with Sketch.</desc>
    <defs>
        <linearGradient x1="34.0150155%" y1="52.415255%" x2="-13.8077889%" y2="101.841641%" id="slinearGradient-1">
            <stop stop-color="#E59CA8" offset="0%"></stop>
            <stop stop-color="#3A3646" offset="100%"></stop>
        </linearGradient>
    </defs>
       <ellipse id="Oval" fill="url(#slinearGradient-1)" cx="10" cy="210.5" rx="5" ry="7.5"></ellipse>
    <g id="paint-splash" stroke="none" stroke-width="1" fill="none" fill-rule="evenodd">
  
        <path d="M121.923686,156.522681 C123.628083,158.60349 120.62304,162.222492 121.923686,170.354423 C121.826004,176.320596 123.214268,180.270067 121.923686,182.773084 C118.811211,185.662614 113.558584,185.235965 108.882923,183.494854 C98.05021,180.14692 96.6910353,176.167871 88.928707,172.953356 C81.7273904,171.233248 70.7923736,171.768566 65.6590548,176.550465 C60.5756724,183.566776 60.0096533,193.145346 69.2472275,198.4172 C72.1717569,201.201689 89.6868069,198.973529 101.226266,199.822458 C112.765725,200.671387 110.6448,219.357263 106.032636,221.463641 C97.8287964,224.675622 93.9643206,222.085176 81.3278403,224.008914 C83.244308,229.442592 104.568838,233.463403 106.032636,240.78411 C107.496434,248.104817 106.032636,257.606161 88.928707,257.606161 C71.8247782,257.606161 46.190124,256.498245 37.1035467,256.498245 C28.0169693,256.498245 17.2207765,260.387974 15.4983675,266.418545 C13.7759585,272.449117 13.4186797,283.850839 30.7159795,285.485708 C48.0132793,287.120576 55.313457,279.589603 71.7331662,277.587881 C88.1528754,275.586158 98.7119959,272.982801 104.777524,275.313691 C110.843052,277.644582 115.648989,284.778677 107.631447,290.652838 C99.6139054,296.526998 86.6556661,307.522956 87.7921865,314.341149 C88.928707,321.159343 93.9078654,322.815974 110.378331,323.184202 C124.143012,324.861511 135.32293,320.494959 139.883469,328.981013 C144.444007,337.467068 136.843174,346.369083 131.428895,352.771727 C117.764295,370.154762 109.075716,374.215862 95.9717864,384.476158 C105.907902,384.235974 131.010674,365.763117 141.766519,356.585239 C152.522364,347.40736 160.150675,337.058762 166.534996,337.706963 C172.919317,338.355164 181.681313,343.964894 178.1738,355.851168 C174.666287,367.737441 159.173238,379.967754 158.40635,385.378646 C164.682814,382.520699 180.979398,370.713646 186.905387,368.481011 C192.831376,366.248376 209.398673,366.248376 216.093177,371.194688 C222.787681,376.141 220.96232,380.690132 217.479265,388.858525 C213.99621,397.026919 206.586589,398.763908 203.24849,405.749322 C199.910391,412.734735 201.765541,418.48502 204.318671,422.844115 C206.871801,427.203209 219.703002,432.78121 228.670944,422.844115 C237.638886,412.907019 232.618766,402.026597 237.374077,393.375887 C242.129389,384.725177 245.950024,377.910887 253.221729,376.532412 C260.493435,375.153936 265.737514,382.05483 275.988982,384.605207 C286.24045,387.155584 292.064131,380.549848 298.904374,386.884566 C305.744617,393.219284 298.904374,400.311786 301.625063,405.749322 C304.345752,411.186857 316.529547,414.937649 325.652396,413.401795 C334.775245,411.865942 337.264101,408.861768 337.264101,399.073886 C337.264101,389.286005 326.56732,387.30624 327.843309,380.231001 C329.119299,373.155763 329.832725,369.315426 340.851491,368.481011 C351.870256,367.646596 362.409818,379.301965 366.326222,380.231001 C365.844245,376.371096 365.844245,373.082356 366.326222,370.364782 C368.440682,366.890602 373.201796,366.262678 380.609563,368.481011 C391.721215,371.80851 416.934583,386.681762 426.545064,390.855947 C424.663525,388.510975 393.902216,367.579208 390.223144,362.489621 C386.544071,357.400034 386.544071,343.770009 394.039515,337.706963 C401.534959,331.643916 415.180592,328.210239 429.789657,330.753964 C444.398723,333.297689 447.321029,338.149155 456.998354,346.127308 C466.675678,354.105462 474.478239,361.540418 484.258989,360.094545 C494.03974,358.648671 504.431103,345.980958 493.444476,336.086916 C482.457849,326.192874 460.060484,325.280242 455.045835,321.159343 C444.969639,311.921418 446.345032,299.911043 447.929883,293.624514 C449.514734,287.337985 455.929901,280.803243 455.045835,272.99576 C454.161769,265.188277 447.321029,261.52192 447.321029,257.606161 C447.321029,253.690402 448.499814,245.524556 472.986467,241.846644 C497.473119,238.168733 516.066962,240.438546 525.191267,236.898622 C534.315573,233.358699 538.536825,227.938659 535.980985,220.826598 C533.425145,213.714537 528.966058,210.328649 512.231412,212.149367 C495.496765,213.970086 485.939876,221.135739 474.120025,224.008914 C462.300175,226.882089 449.681308,229.385328 442.843003,223.279732 C437.350589,217.37059 439.26013,210.22591 447.929883,192.245936 C463.990535,168.59081 470.670968,160.819337 495.630683,149.791463 C487.180943,148.818366 462.771309,165.133308 447.929883,168.605395 C435.064628,171.147278 425.55704,171.694884 412.733345,168.61433 C406.208415,166.111167 396.365447,160.409589 412.733345,151.024536 C429.502829,141.807126 447.385808,133.907761 455.045835,128.819016 C462.705863,123.730272 467.062975,121.893482 466.576335,111.693188 C464.524912,105.720998 459.068413,98.5351264 443.1065,105.520246 C427.144586,112.505365 425.351329,123.414442 412.733345,130.669902 C400.11536,137.925361 393.510367,140.350671 382.035441,139.025692 C378.831451,138.635517 369.88009,135.640487 366.326222,128.819016 C364.483404,124.447523 363.647048,117.89085 363.817154,109.148997 C363.618625,101.197484 361.638723,96.4219162 357.877449,94.8222927 C352.235537,92.4228575 345.122859,90.4690952 339.159957,96.5795701 C333.197055,102.690045 322.544854,109.022665 315.173815,109.868111 C308.828362,109.83659 298.890676,111.324107 287.103368,97.6958711 C285.492872,93.4658277 286.36236,79.675279 294.606791,60.0891455 C286.57648,64.6912 280.985028,90.3417959 273.812854,88.31454 C262.15745,82.3087824 259.111088,86.4110266 247.000334,84.6456148 C241.037078,81.6852374 236.285506,80.3869972 231.310542,72.0106181 C228.074405,66.3046941 230.886596,60.53878 224.344609,51.1368903 C220.720623,47.1798152 208.426806,40.5080147 198.942954,44.7650397 C189.459101,49.0220646 183.982252,63.4631086 190.965204,70.5544718 C207.529865,81.228783 221.59961,94.1074827 219.139937,97.6256834 C218.6078,100.959564 201.715713,90.083585 186.093161,88.31454 C207.544051,100.657033 211.368896,100.543848 212.722955,105.520246 C214.077014,110.496643 205.781434,111.021978 197.428897,115.247923 C189.07636,119.473868 186.765385,122.954262 178.845448,120.982135 C170.92551,119.010009 171.920157,111.762587 165.672041,108.439946 C159.423925,105.117306 153.924195,107.575723 149.114528,111.693188 C144.304862,115.810653 144.730182,122.425916 146.328114,126.489417 C147.926046,130.552917 155.300438,129.000715 157.541376,133.122445 C159.782313,137.244174 159.991113,140.516822 157.541376,141.988816 C152.872785,145.400884 144.893674,147.323756 133.611739,147.139235 C116.036146,146.478297 110.955516,144.985973 86.6783701,138.453735 C84.390799,139.882489 117.31537,152.41796 121.923686,156.522681 Z" id="Path-3-Copy" fill="url(#slinearGradient-1)" transform="translate(275.716980, 235.895870) rotate(3.000000) translate(-275.716980, -235.895870) "></path>
    </g>
</svg>