<?xml version="1.0" encoding="UTF-8"?>
<svg width="485px" height="471px" viewBox="0 0 485 471" version="1.1" xmlns="http://www.w3.org/2000/svg" xmlns:xlink="http://www.w3.org/1999/xlink">
    <!-- Generator: Sketch 53.2 (72643) - https://sketchapp.com -->
    <title>painting</title>
    <desc>Created with Sketch.</desc>
    <defs>
        <radialGradient cx="54.2224472%" cy="50%" fx="54.2224472%" fy="50%" r="103.235018%" gradientTransform="translate(0.542224,0.500000),scale(0.414716,1.000000),rotate(44.877515),translate(-0.542224,-0.500000)" id="radialGradient-1">
            <stop stop-color="#3A3646" offset="0%"></stop>
            <stop stop-color="#E59CA8" offset="100%"></stop>
        </radialGradient>
        <linearGradient x1="80.1502804%" y1="20.5460314%" x2="53.8761946%" y2="82.2690837%" id="linearGradient-2">
            <stop stop-color="#3EA1B2" offset="0%"></stop>
            <stop stop-color="#332F40" offset="100%"></stop>
        </linearGradient>
        <linearGradient x1="50%" y1="10.6210064%" x2="55.2686921%" y2="64.2175876%" id="linearGradient-3">
            <stop stop-color="#5B507A" offset="0%"></stop>
            <stop stop-color="#332F40" offset="100%"></stop>
        </linearGradient>
        <linearGradient x1="1.86608633%" y1="67.603038%" x2="97.8352828%" y2="39.2726653%" id="linearGradient-4">
            <stop stop-color="#332F40" offset="0%"></stop>
            <stop stop-color="#3A608C" offset="73.2817779%"></stop>
            <stop stop-color="#3E78B2" offset="100%"></stop>
        </linearGradient>
        <linearGradient x1="50%" y1="50%" x2="1.66120478%" y2="90.4254775%" id="linearGradient-5">
            <stop stop-color="#BA828F" offset="0%"></stop>
            <stop stop-color="#3A3646" offset="100%"></stop>
        </linearGradient>
        <linearGradient x1="128.158997%" y1="74.3663166%" x2="65.0464896%" y2="13.6546732%" id="linearGradient-6">
            <stop stop-color="#3A3646" offset="0%"></stop>
            <stop stop-color="#E59CA8" offset="100%"></stop>
        </linearGradient>
    </defs>
    <g id="painting" stroke="none" stroke-width="1" fill="none" fill-rule="evenodd">
        <g id="paint-copy" transform="translate(233.127922, 251.517295) scale(-1, 1) rotate(17.000000) translate(-233.127922, -251.517295) translate(41.627922, 80.517295)">
            <g id="Group-2" transform="translate(201.000000, 113.000000) scale(-1, 1) translate(-201.000000, -113.000000) translate(51.000000, -0.000000)">
                <path d="M59.703706,217.969151 C53.5239261,212.321495 49.4669855,208.093925 47.5328843,205.286442 C44.6317325,201.075216 42.7693711,193.978651 51.2365386,186.989211 C59.703706,179.999771 74.592433,175.391007 79.2310833,173.169286 C83.8697337,170.947565 100.080954,167.396237 116.091405,164.452657 C132.101856,161.509076 151.641734,162.281189 163.46794,162.281189 C175.294146,162.281189 183.999104,164.261701 196.752977,166.311959 C209.50685,168.362216 224.83472,169.141844 229.702326,169.141844 C234.569932,169.141844 240.787141,168.541211 241.13379,174.654314 C241.480439,180.767417 239.512777,182.944712 240.689261,191.651291 C241.865744,200.357871 250.380476,200.357871 250.744954,191.651291 C251.109432,182.944712 246.632541,178.090404 246.784898,173.169286 C246.937256,168.248169 249.899104,166.311959 256.736194,164.452657 C263.573284,162.593355 263.441268,161.480916 271.008356,158.892375 C272.230129,158.474432 279.720286,157.723956 278.117245,169.141844 C276.514204,180.559732 281.504073,184.625558 284.374122,186.989211 C288.102312,190.059594 297.066748,186.989211 292.564266,179.337343 C288.061785,171.685476 286.19999,171.408103 284.374122,160.632012 C282.548254,149.85592 293.951654,147.620618 297.066748,142.425888 C302.217461,133.836559 299.35489,124.896862 297.705626,121.042627 C296.056362,117.188392 293.307407,112.194202 292.564266,105.94419 C291.821125,99.694178 292.196017,97.9403402 291.369172,94.4030485 C290.542328,90.8657569 274.588464,111.434743 260.686681,123.902512 C246.784898,136.370281 210.980768,138.314408 185.823444,142.425888 C160.666119,146.537367 152.385969,145.442859 119.184525,147.731937 C85.9830821,150.021015 77.6201528,153.547751 66.6743017,158.892375 C55.7284505,164.236999 41.3952574,174.904177 29.1571861,186.989211 C16.9191148,199.074245 2.89865274,215.259875 1,217.969151 C2.86152163,218.010283 22.4294236,218.010283 59.703706,217.969151 Z" id="Path-11" fill="url(#radialGradient-1)"></path>
                <path d="M151.630582,135.826611 C147.789138,137.183723 161.498964,130.574287 192.76006,115.998304 C203.505696,110.801446 211.341136,105.952948 216.266382,101.45281 C223.654251,94.7026035 231.125063,90.304314 238.624174,75.5817209 C246.123286,60.8591279 244.60785,49.4848266 241.862893,39.2092288 C239.117935,28.9336311 229.05244,17.7860558 221.962194,14.1496824 C218.841815,12.549334 212.623012,9.27533024 203.296872,10.5133089 C198.495534,11.1506523 189.432543,14.1496824 186.421189,16.6465874 C183.409834,19.1434925 200.034853,3.54338672 216.266382,0.88008618 C232.497912,-1.78321436 246.765677,1.47726994 257.958784,12.316612 C269.151891,23.1559541 273.699756,36.5669739 273.995388,52.7038039 C274.192477,63.4616905 268.072187,74.9475187 255.63452,87.1612885 C248.509429,93.7167449 235.943579,101.174146 217.936971,109.533491 C190.92706,122.072508 157.392749,133.790942 151.630582,135.826611 Z" id="Path-9" fill="url(#linearGradient-2)"></path>
                <path d="M163,130.970256 C167.823684,128.060524 167.933766,129.337056 179.760672,122.554348 C191.587577,115.77164 196.231402,112.384728 200.287176,104.157661 C204.342949,95.9305947 202.306969,87.1924234 200.287176,82.0951744 C197.36164,75.8891001 193.099319,67.8484129 186.986823,60.6624321 C180.874327,53.4764514 176.405385,41.4731673 179.760672,29.401935 C183.115959,17.3307027 192.797338,13.0027816 200.287176,11.1687884 C212.591371,7.86724968 223.092643,12.0967147 229.160452,17.1740469 C240.766661,26.8857195 241.96594,35.8238796 243.342456,40.9461208 C246.736084,53.1055983 244.19275,63.3943614 242.148117,69.8175228 C236.461112,84.3549713 231.117464,89.6294837 224.176835,96.3685874 C218.255161,101.76644 216.247261,103.938399 205.444116,111.250026 C198.242019,116.124444 190.462142,120.20997 182.104484,123.506604 C169.675701,128.816938 163.30754,131.304822 163,130.970256 Z" id="Path-10" fill="url(#linearGradient-3)"></path>
                <path d="M0,218.270911 L27.0654319,190.588362 C41.0188836,175.661734 58.8043149,162.908356 80.4217256,152.328228 C110.292299,139.69784 128.529781,136.605503 153.953866,129.486589 C179.37795,122.367675 197.71614,115.294435 216.309734,106.780388 C234.903328,98.2663413 241.246173,95.2528961 258.017,81.4915307 C269.197552,72.3172871 274.287583,60.8201102 273.287093,47 C282.528331,58.5170339 288.348793,68.5903588 290.74848,77.2199747 C293.861082,90.4477848 290.74848,106.780388 286.015206,114.392374 C281.281933,122.004359 276.195662,132.183431 258.017,141.172042 C233.89603,153.751109 224.257356,155.41592 201.717464,158.953578 C179.177572,162.491237 167.037357,159.70229 140.096999,161.866875 C113.156641,164.031459 110.531944,163.109522 86.6564412,168.19842 C62.7809383,173.287318 52.5554992,176.571282 44.978524,180.986088 C37.4015488,185.400894 34.8208084,189.131629 29.4518505,198.263313 C25.8725451,204.351102 24.0828925,213.596664 24.0828925,226 L0,218.270911 Z" id="Path-8" fill="url(#linearGradient-4)"></path>
                <ellipse id="Oval" fill="url(#linearGradient-5)" cx="246" cy="210.5" rx="5" ry="7.5"></ellipse>
            </g>
            <ellipse id="Oval" fill="url(#linearGradient-6)" cx="16.3627271" cy="202.981376" rx="16" ry="18.5"></ellipse>
            <g id="Group-3" transform="translate(294.500000, 263.500000) scale(-1, 1) translate(-294.500000, -263.500000) translate(206.000000, 185.000000)">
                <path d="M1.2673208,59 C-1.65557814,72.051748 0.477467454,82.0214302 7.66645758,88.9090465 C15.3857714,95.9669873 26.8462717,104.997305 42.0479586,116 L44,105.322369 L1.2673208,59 Z" id="Path-5" fill="#BD8B81"></path>
                <path d="M43.2977917,104 L106,42.387105 L90.7874779,32.7495671 C74.946184,23.7953467 68.4418537,12.8788244 71.274487,0 C70.5602247,0.712057528 52.6103296,15.3101128 52.4231769,15.4759269 C51.4888828,17.4357454 52.9237495,20.9048202 56.7277771,25.8831513 C51.2662765,23.0501598 48.3508058,20.7657869 47.9813651,19.0300325 C47.6258331,19.3539286 30.2344179,34.3739334 30.161655,34.3719226 C28.8310041,40.2382736 32.5147194,46.7388114 41.2128008,53.8735361 C29.3943035,47.3001441 23.5959278,42.5459376 23.8176736,39.6109168 C23.814831,39.603516 20.1752417,42.7396507 12.8989057,49.0193211 C12.0224187,51.0917662 12.859625,53.8059744 15.4105248,57.1619458 C15.4105248,57.1619458 10.0585636,52.1684708 8.97655945,52.3828325 C8.96999328,52.3895019 1.6227077,58.1194294 1.6227077,58.1194294 C-1.64484651,71.5013526 8.72937271,82.0575103 14.5626738,85.6052524 C25.5179582,92.9485536 35.0963308,99.0801362 43.2977917,104 Z" id="Path-2" fill="#DCABA2"></path>
                <path d="M112.425087,47 L49.0557667,108.902183 L47,118.82124 C53.4549633,123.087279 58.4861739,125.948846 62.0936318,127.405943 C68.0257232,129.569559 78.9230211,130.137176 84.7200143,126.173038 C90.5170075,122.208901 91.6424946,121.157791 95.1296773,117.021279 C97.3152878,115.221318 100.749857,113.133842 106.368882,113.133842 C111.987906,113.133842 116.493444,114.854508 120.787914,118.081091 C125.082384,121.307674 124.488309,121.307674 128.698865,126.173038 C132.90942,131.038402 132.42841,131.231526 138.531181,138.36165 C144.633952,145.491774 147.327629,148.360548 153.271171,152.713937 C159.214712,157.067326 166.272082,157.691984 169.209614,156.409993 C172.147145,155.128002 174.324511,152.713937 175.80691,149.687716 C177.289309,146.661496 177.968136,141.853467 174.324511,136.85383 C171.895427,133.520738 166.992248,129.960474 159.614972,126.173038 C152.397184,122.998219 145.815732,120.54762 139.870614,118.82124 C130.952938,116.231671 126.813118,114.286301 124.488309,112.73783 C122.163501,111.189359 117.701432,107.462125 116.811243,101.704997 C115.921055,95.9478675 119.037569,91.5103339 120.787914,89.6413735 C122.538258,87.772413 126.572185,82.6877129 128.698865,78.9630454 C130.825545,75.2383778 135.091544,63.8737683 127.747947,58.2406213 C127.405492,57.9114568 122.297872,54.164583 112.425087,47 Z" id="Path-6" fill="#224364"></path>
            </g>
        </g>
    </g>
</svg>