<svg viewBox="0 0 999 551" version="1.1" xmlns="http://www.w3.org/2000/svg" xmlns:xlink="http://www.w3.org/1999/xlink" id="el_5cKIPoltX"><style>}</style>
    <!-- Generator: Sketch 54.1 (76490) - https://sketchapp.com -->
    <title>painting copy</title>
    <desc>Created with Sketch.</desc>
    <defs>
        <radialGradient cx="54.2224472%" cy="50%" fx="54.2224472%" fy="50%" r="108.55978%" gradientTransform="translate(0.542224,0.500000),scale(0.376900,1.000000),rotate(42.143117),translate(-0.542224,-0.500000)" id="radialGradient-1">
            <stop stop-color="#3A3646" offset="0%"/>
            <stop stop-color="#E59CA8" offset="100%"/>
        </radialGradient>
        <linearGradient x1="86.3202366%" y1="20.5460314%" x2="54.6694195%" y2="82.2690837%" id="linearGradient-2">
            <stop stop-color="#3EA1B2" offset="0%"/>
            <stop stop-color="#332F40" offset="100%"/>
        </linearGradient>
        <linearGradient x1="50%" y1="10.6210064%" x2="56.3468777%" y2="64.2175876%" id="linearGradient-3">
            <stop stop-color="#5B507A" offset="0%"/>
            <stop stop-color="#332F40" offset="100%"/>
        </linearGradient>
        <linearGradient x1="1.86608633%" y1="64.5660992%" x2="97.8352828%" y2="41.1233833%" id="linearGradient-4">
            <stop stop-color="#332F40" offset="0%"/>
            <stop stop-color="#3A608C" offset="73.2817779%"/>
            <stop stop-color="#3E78B2" offset="100%"/>
        </linearGradient>
        <linearGradient x1="50%" y1="50%" x2="-8.48994222%" y2="90.4254775%" id="linearGradient-5">
            <stop stop-color="#BA828F" offset="0%"/>
            <stop stop-color="#3A3646" offset="100%"/>
        </linearGradient>
        <linearGradient x1="34.0150155%" y1="52.415255%" x2="-13.8077889%" y2="101.841641%" id="linearGradient-6">
            <stop stop-color="#E59CA8" offset="0%"/>
            <stop stop-color="#3A3646" offset="100%"/>
        </linearGradient>
    </defs>
    <g id="el__jLb3Pkxu4" fill-rule="evenodd">
        <g id="el_lF4C2M9yBV">
            <g id="el_fpd7G_GMg-_an_Ps9MUMwgR" data-animator-group="true" data-animator-type="0"><g id="el_fpd7G_GMg-">
                <path d="M65.4005065,218.54682 C58.6006818,212.899164 54.1366903,208.671594 52.0085321,205.864111 C48.8162948,201.652885 46.7670744,194.55632 56.0837905,187.56688 C65.4005065,180.57744 81.7830856,175.968677 86.8871524,173.746955 C91.9912192,171.525234 109.828983,167.973906 127.445834,165.030326 C145.062685,162.086745 166.563086,162.858858 179.575868,162.858858 C192.58865,162.858858 202.167014,164.83937 216.20054,166.889628 C230.234066,168.939885 247.099849,169.719513 252.455844,169.719513 C257.811839,169.719513 264.652848,169.11888 265.034278,175.231983 C265.415707,181.345086 263.250622,183.522381 264.545147,192.228961 C265.839672,200.935541 275.208724,200.935541 275.609772,192.228961 C276.01082,183.522381 271.084743,178.668073 271.252387,173.746955 C271.420031,168.825838 274.679055,166.889628 282.202141,165.030326 C289.725227,163.171024 289.579964,162.058585 297.906292,159.470044 C299.250651,159.052101 307.492329,158.301625 305.728447,169.719513 C303.964566,181.137401 309.455091,185.203227 312.613105,187.56688 C316.715361,190.637263 326.579238,187.56688 321.625003,179.915012 C316.670767,172.263145 314.622171,171.985773 312.613105,161.209681 C310.604039,150.433589 323.151593,148.198288 326.579238,143.003557 C332.246745,134.414228 329.096959,125.474531 327.282218,121.620296 C325.467476,117.766061 322.442706,112.771871 321.625003,106.521859 C320.807299,100.271847 321.219806,98.5180093 320.31,94.9807177 C319.400194,91.443426 301.845608,112.012413 286.548997,124.480181 C271.252387,136.94795 231.855869,138.892077 204.174398,143.003557 C176.492927,147.115036 167.381993,146.020528 130.849301,148.309606 C94.3166093,150.598684 85.1145901,154.12542 73.070493,159.470044 C61.026396,164.814668 45.2550898,175.481846 31.7891183,187.56688 C18.3231469,199.651914 2.89594953,215.837544 0.806796522,218.54682 C2.85509289,218.587952 24.3863296,218.587952 65.4005065,218.54682 Z" id="el_Y1PmnzPH8t"/>
                <path d="M166.470349,136.763638 C162.254129,138.120751 177.301499,131.511315 211.612458,116.935332 C223.406449,111.738474 232.006323,106.889976 237.41208,102.389838 C245.520717,95.6396312 253.720389,91.2413417 261.951121,76.5187487 C270.181852,61.7961556 268.51857,50.4218543 265.505811,40.1462566 C262.493053,29.8706588 251.445558,18.7230835 243.663581,15.0867101 C240.238775,13.4863618 233.413259,10.212358 223.177252,11.4503366 C217.907491,12.0876801 207.960305,15.0867101 204.65516,17.5836152 C201.350016,20.0805202 219.596987,4.48041445 237.41208,1.81711392 C255.227174,-0.846186621 270.886917,2.41429767 283.172034,13.2536398 C295.457151,24.0929818 300.44871,37.5040016 300.773185,53.6408316 C300.989501,64.3987183 294.27211,75.8845465 280.621012,88.0983162 C272.80079,94.6537727 259.009004,102.111173 239.245654,110.470518 C209.600629,123.009536 172.794678,134.72797 166.470349,136.763638 Z" id="el_xpz0bRJpJm"/>
                <path d="M179.075775,132.20273 C184.370063,129.292998 184.490884,130.569529 197.471634,123.786822 C210.452384,117.004114 215.549265,113.617201 220.000724,105.390135 C224.452182,97.1630683 222.21757,88.424897 220.000724,83.327648 C216.789769,77.1215737 212.111613,69.0808865 205.402775,61.8949057 C198.693938,54.708925 193.789002,42.7056409 197.471634,30.6344086 C201.154266,18.5631763 211.78017,14.2352552 220.000724,12.401262 C233.505328,9.09972329 245.031115,13.3291883 251.690905,18.4065205 C264.429427,28.1181931 265.745709,37.0563532 267.256519,42.1785944 C270.981233,54.3380719 268.189768,64.626835 265.945659,71.0499964 C259.703824,85.5874449 253.838845,90.8619573 246.221081,97.601061 C239.721684,102.998914 237.51789,105.170873 225.66078,112.482499 C217.75604,117.356917 209.21715,121.442443 200.04411,124.739078 C186.402764,130.049412 179.413319,132.537296 179.075775,132.20273 Z" id="el_sWVWBPBAJy"/>
                <path d="M0.292936474,219.643633 L30.0463735,191.961083 C45.3856133,177.034455 64.9374059,164.281077 88.7017513,153.700949 C121.538923,141.070561 141.587662,137.978225 169.536741,130.859311 C197.48582,123.740396 217.645269,116.667156 238.085487,108.15311 C258.525705,99.6390628 265.49849,96.6256175 283.934913,82.8642522 C296.225862,73.6900086 301.821409,62.1928317 300.721556,48.3727215 C310.880588,59.8897554 317.279109,69.9630803 319.917121,78.5926961 C323.338852,91.8205062 319.917121,108.15311 314.713762,115.765095 C309.510404,123.377081 303.91899,133.556152 283.934913,142.544764 C257.418366,155.12383 246.822427,156.788642 222.043984,160.3263 C197.265542,163.863958 183.91962,161.075011 154.303678,163.239596 C124.687737,165.404181 121.802368,164.482243 95.5556681,169.571141 C69.308968,174.66004 58.0679886,177.944003 49.7385057,182.35881 C41.4090227,186.773616 38.5719759,190.50435 32.6697995,199.636034 C28.7350152,205.723823 26.7676231,214.969386 26.7676231,227.372721 L0.292936474,219.643633 Z" id="el_3AIjOnFqRm"/>
                <g id="el_EopNiMkgCN_an_PEv7FtBdr" data-animator-group="true" data-animator-type="0"><g id="el_EopNiMkgCN_an_bbP7yzuit" data-animator-group="true" data-animator-type="2"><ellipse id="el_EopNiMkgCN" cx="270.820194" cy="211.214405" rx="5.5" ry="7.5"/></g></g>
            </g></g>
            <g id="el_CC835Rv3lL">
                <path d="M1.2673208,59 C-1.65557814,72.051748 0.477467454,82.0214302 7.66645758,88.9090465 C15.3857714,95.9669873 26.8462717,104.997305 42.0479586,116 L44,105.322369 L1.2673208,59 Z" id="el_YmWI7uc6iC"/>
                <path d="M43.2977917,104 L106,42.387105 L90.7874779,32.7495671 C74.946184,23.7953467 68.4418537,12.8788244 71.274487,0 C70.5602247,0.712057528 52.6103296,15.3101128 52.4231769,15.4759269 C51.4888828,17.4357454 52.9237495,20.9048202 56.7277771,25.8831513 C51.2662765,23.0501598 48.3508058,20.7657869 47.9813651,19.0300325 C47.6258331,19.3539286 30.2344179,34.3739334 30.161655,34.3719226 C28.8310041,40.2382736 32.5147194,46.7388114 41.2128008,53.8735361 C29.3943035,47.3001441 23.5959278,42.5459376 23.8176736,39.6109168 C23.814831,39.603516 20.1752417,42.7396507 12.8989057,49.0193211 C12.0224187,51.0917662 12.859625,53.8059744 15.4105248,57.1619458 C15.4105248,57.1619458 10.0585636,52.1684708 8.97655945,52.3828325 C8.96999328,52.3895019 1.6227077,58.1194294 1.6227077,58.1194294 C-1.64484651,71.5013526 8.72937271,82.0575103 14.5626738,85.6052524 C25.5179582,92.9485536 35.0963308,99.0801362 43.2977917,104 Z" id="el_iCD8Fv2qLt"/>
                <path d="M112.425087,47 L49.0557667,108.902183 L47,118.82124 C53.4549633,123.087279 58.4861739,125.948846 62.0936318,127.405943 C68.0257232,129.569559 78.9230211,130.137176 84.7200143,126.173038 C90.5170075,122.208901 91.6424946,121.157791 95.1296773,117.021279 C97.3152878,115.221318 100.749857,113.133842 106.368882,113.133842 C111.987906,113.133842 116.493444,114.854508 120.787914,118.081091 C125.082384,121.307674 124.488309,121.307674 128.698865,126.173038 C132.90942,131.038402 132.42841,131.231526 138.531181,138.36165 C144.633952,145.491774 147.327629,148.360548 153.271171,152.713937 C159.214712,157.067326 166.272082,157.691984 169.209614,156.409993 C172.147145,155.128002 174.324511,152.713937 175.80691,149.687716 C177.289309,146.661496 177.968136,141.853467 174.324511,136.85383 C171.895427,133.520738 166.992248,129.960474 159.614972,126.173038 C152.397184,122.998219 145.815732,120.54762 139.870614,118.82124 C130.952938,116.231671 126.813118,114.286301 124.488309,112.73783 C122.163501,111.189359 117.701432,107.462125 116.811243,101.704997 C115.921055,95.9478675 119.037569,91.5103339 120.787914,89.6413735 C122.538258,87.772413 126.572185,82.6877129 128.698865,78.9630454 C130.825545,75.2383778 135.091544,63.8737683 127.747947,58.2406213 C127.405492,57.9114568 122.297872,54.164583 112.425087,47 Z" id="el_7QjaD2glVf"/>
            </g>
        </g>
        <g id="el_6OdwwwQDUw_an_xY7gt1-Km" data-animator-group="true" data-animator-type="0"><g id="el_6OdwwwQDUw_an_F2Jlis7Fi" data-animator-group="true" data-animator-type="2"><path d="M537.923686,234.522681 C539.628083,236.60349 536.62304,240.222492 537.923686,248.354423 C537.826004,254.320596 539.214268,258.270067 537.923686,260.773084 C534.811211,263.662614 529.558584,263.235965 524.882923,261.494854 C514.05021,258.14692 512.691035,254.167871 504.928707,250.953356 C497.72739,249.233248 486.792374,249.768566 481.659055,254.550465 C476.575672,261.566776 476.009653,271.145346 485.247227,276.4172 C488.171757,279.201689 505.686807,276.973529 517.226266,277.822458 C528.765725,278.671387 526.6448,297.357263 522.032636,299.463641 C513.828796,302.675622 509.964321,300.085176 497.32784,302.008914 C499.244308,307.442592 520.568838,311.463403 522.032636,318.78411 C523.496434,326.104817 522.032636,335.606161 504.928707,335.606161 C487.824778,335.606161 462.190124,334.498245 453.103547,334.498245 C444.016969,334.498245 433.220777,338.387974 431.498368,344.418545 C429.775958,350.449117 429.41868,361.850839 446.71598,363.485708 C464.013279,365.120576 471.313457,357.589603 487.733166,355.587881 C504.152875,353.586158 514.711996,350.982801 520.777524,353.313691 C526.843052,355.644582 531.648989,362.778677 523.631447,368.652838 C515.613905,374.526998 502.655666,385.522956 503.792187,392.341149 C504.928707,399.159343 509.907865,400.815974 526.378331,401.184202 C540.143012,402.861511 551.32293,398.494959 555.883469,406.981013 C560.444007,415.467068 552.843174,424.369083 547.428895,430.771727 C533.764295,448.154762 525.075716,452.215862 511.971786,462.476158 C521.907902,462.235974 547.010674,443.763117 557.766519,434.585239 C568.522364,425.40736 576.150675,415.058762 582.534996,415.706963 C588.919317,416.355164 597.681313,421.964894 594.1738,433.851168 C590.666287,445.737441 575.173238,457.967754 574.40635,463.378646 C580.682814,460.520699 596.979398,448.713646 602.905387,446.481011 C608.831376,444.248376 625.398673,444.248376 632.093177,449.194688 C638.787681,454.141 636.96232,458.690132 633.479265,466.858525 C629.99621,475.026919 622.586589,476.763908 619.24849,483.749322 C615.910391,490.734735 617.765541,496.48502 620.318671,500.844115 C622.871801,505.203209 635.703002,510.78121 644.670944,500.844115 C653.638886,490.907019 648.618766,480.026597 653.374077,471.375887 C658.129389,462.725177 661.950024,455.910887 669.221729,454.532412 C676.493435,453.153936 681.737514,460.05483 691.988982,462.605207 C702.24045,465.155584 708.064131,458.549848 714.904374,464.884566 C721.744617,471.219284 714.904374,478.311786 717.625063,483.749322 C720.345752,489.186857 732.529547,492.937649 741.652396,491.401795 C750.775245,489.865942 753.264101,486.861768 753.264101,477.073886 C753.264101,467.286005 742.56732,465.30624 743.843309,458.231001 C745.119299,451.155763 745.832725,447.315426 756.851491,446.481011 C767.870256,445.646596 778.409818,457.301965 782.326222,458.231001 C781.844245,454.371096 781.844245,451.082356 782.326222,448.364782 C784.440682,444.890602 789.201796,444.262678 796.609563,446.481011 C807.721215,449.80851 832.934583,464.681762 842.545064,468.855947 C840.663525,466.510975 809.902216,445.579208 806.223144,440.489621 C802.544071,435.400034 802.544071,421.770009 810.039515,415.706963 C817.534959,409.643916 831.180592,406.210239 845.789657,408.753964 C860.398723,411.297689 863.321029,416.149155 872.998354,424.127308 C882.675678,432.105462 890.478239,439.540418 900.258989,438.094545 C910.03974,436.648671 920.431103,423.980958 909.444476,414.086916 C898.457849,404.192874 876.060484,403.280242 871.045835,399.159343 C860.969639,389.921418 862.345032,377.911043 863.929883,371.624514 C865.514734,365.337985 871.929901,358.803243 871.045835,350.99576 C870.161769,343.188277 863.321029,339.52192 863.321029,335.606161 C863.321029,331.690402 864.499814,323.524556 888.986467,319.846644 C913.473119,316.168733 932.066962,318.438546 941.191267,314.898622 C950.315573,311.358699 954.536825,305.938659 951.980985,298.826598 C949.425145,291.714537 944.966058,288.328649 928.231412,290.149367 C911.496765,291.970086 901.939876,299.135739 890.120025,302.008914 C878.300175,304.882089 865.681308,307.385328 858.843003,301.279732 C853.350589,295.37059 855.26013,288.22591 863.929883,270.245936 C879.990535,246.59081 886.670968,238.819337 911.630683,227.791463 C903.180943,226.818366 878.771309,243.133308 863.929883,246.605395 C851.064628,249.147278 841.55704,249.694884 828.733345,246.61433 C822.208415,244.111167 812.365447,238.409589 828.733345,229.024536 C845.502829,219.807126 863.385808,211.907761 871.045835,206.819016 C878.705863,201.730272 883.062975,199.893482 882.576335,189.693188 C880.524912,183.720998 875.068413,176.535126 859.1065,183.520246 C843.144586,190.505365 841.351329,201.414442 828.733345,208.669902 C816.11536,215.925361 809.510367,218.350671 798.035441,217.025692 C794.831451,216.635517 785.88009,213.640487 782.326222,206.819016 C780.483404,202.447523 779.647048,195.89085 779.817154,187.148997 C779.618625,179.197484 777.638723,174.421916 773.877449,172.822293 C768.235537,170.422857 761.122859,168.469095 755.159957,174.57957 C749.197055,180.690045 738.544854,187.022665 731.173815,187.868111 C724.828362,187.83659 714.890676,189.324107 703.103368,175.695871 C701.492872,171.465828 702.36236,157.675279 710.606791,138.089146 C702.57648,142.6912 696.985028,168.341796 689.812854,166.31454 C678.15745,160.308782 675.111088,164.411027 663.000334,162.645615 C657.037078,159.685237 652.285506,158.386997 647.310542,150.010618 C644.074405,144.304694 646.886596,138.53878 640.344609,129.13689 C636.720623,125.179815 624.426806,118.508015 614.942954,122.76504 C605.459101,127.022065 599.982252,141.463109 606.965204,148.554472 C623.529865,159.228783 637.59961,172.107483 635.139937,175.625683 C634.6078,178.959564 617.715713,168.083585 602.093161,166.31454 C623.544051,178.657033 627.368896,178.543848 628.722955,183.520246 C630.077014,188.496643 621.781434,189.021978 613.428897,193.247923 C605.07636,197.473868 602.765385,200.954262 594.845448,198.982135 C586.92551,197.010009 587.920157,189.762587 581.672041,186.439946 C575.423925,183.117306 569.924195,185.575723 565.114528,189.693188 C560.304862,193.810653 560.730182,200.425916 562.328114,204.489417 C563.926046,208.552917 571.300438,207.000715 573.541376,211.122445 C575.782313,215.244174 575.991113,218.516822 573.541376,219.988816 C568.872785,223.400884 560.893674,225.323756 549.611739,225.139235 C532.036146,224.478297 526.955516,222.985973 502.67837,216.453735 C500.390799,217.882489 533.31537,230.41796 537.923686,234.522681 Z" id="el_6OdwwwQDUw"/></g></g>
    </g>
</svg>